<?xml version="1.0" encoding="UTF-8"?>
<!-- Generator: visioncortex VTracer 0.6.3 -->
<svg version="1.1" xmlns="http://www.w3.org/2000/svg" width="1280" height="1280">
<path d="M0 0 C36.64 -0.07 73.28 -0.12 109.92 -0.15 C114.24 -0.16 118.56 -0.16 122.88 -0.16 C123.74 -0.17 124.6 -0.17 125.49 -0.17 C139.44 -0.18 153.38 -0.2 167.33 -0.23 C181.63 -0.26 195.93 -0.28 210.24 -0.28 C219.07 -0.29 227.9 -0.3 236.73 -0.32 C242.78 -0.34 248.83 -0.34 254.88 -0.34 C258.37 -0.34 261.86 -0.34 265.36 -0.36 C269.14 -0.37 272.92 -0.37 276.71 -0.36 C278.37 -0.37 278.37 -0.37 280.07 -0.39 C281.08 -0.38 282.09 -0.38 283.13 -0.37 C284.01 -0.37 284.88 -0.37 285.78 -0.37 C288.49 0.08 289.24 0.96 291 3 C291.76 3.39 292.53 3.78 293.31 4.19 C298.75 7.86 302.56 13.98 305 20 C305.36 22.33 305.69 24.66 306 27 C306.66 27.99 307.32 28.98 308 30 C309.59 34.86 310.56 39.73 311.44 44.77 C311.93 47.26 311.93 47.26 314 50 C314.35 52.33 314.68 54.67 315 57 C315.63 58.68 316.3 60.35 317 62 C318.23 65.93 319.18 69.83 319.94 73.88 C321.04 79.55 322.68 84.98 325 90.29 C326.48 94.3 327.12 98.45 327.86 102.65 C328.48 106.03 329.06 108.09 331 111 C331.36 113.32 331.5 115.6 331.66 117.94 C331.83 120.22 331.83 120.22 334 122 C334.6 123.91 334.6 123.91 335.06 126.06 C335.52 128.8 335.52 128.8 337 131 C337.3 132.41 337.57 133.83 337.81 135.25 C338.84 140.65 340.45 145.77 342.12 151 C342.83 153.42 343.34 155.63 343.62 158.12 C343.81 161.19 343.81 161.19 346 164 C346.23 165.91 346.46 167.83 346.66 169.74 C347.36 174.34 348.88 178.89 351.06 183 C352.07 185.15 352.36 186.84 352.56 189.19 C352.57 192.78 352.57 192.78 354 194 C354.14 195.11 354.29 196.23 354.44 197.38 C354.75 201.09 354.75 201.09 357 204 C357.2 206.26 357.2 206.26 357.12 208.69 C357.11 209.5 357.09 210.3 357.07 211.14 C357.04 212.06 357.04 212.06 357 213 C357.99 213.33 358.98 213.66 360 214 C360.19 215.64 360.19 215.64 360.38 217.31 C360.75 221.07 360.75 221.07 363 224 C363.41 225.69 363.76 227.41 364.06 229.12 C364.42 232.36 364.42 232.36 366 235 C366.48 237.11 366.95 239.22 367.4 241.34 C368.02 244.07 368.74 246.75 369.5 249.44 C370.75 253.9 371.69 258.34 372.47 262.91 C372.95 265.28 372.95 265.28 375 268 C376.7 273.11 377.61 278.23 378.44 283.55 C378.9 286.24 378.9 286.24 381 289 C383.11 294.74 383.22 299.92 383 306 C383.99 306.33 384.98 306.66 386 307 C387.1 309.91 387.1 309.91 388.06 313.62 C388.38 314.83 388.7 316.04 389.04 317.29 C389.35 318.51 389.67 319.74 390 321 C390.54 322.78 390.54 322.78 391.08 324.59 C391.94 327.77 392.38 330.66 392.62 333.94 C392.7 334.9 392.77 335.85 392.85 336.84 C392.9 337.55 392.95 338.27 393 339 C393.66 339 394.32 339 395 339 C395.13 339.64 395.27 340.28 395.4 340.93 C395.58 341.76 395.76 342.59 395.94 343.44 C396.11 344.26 396.29 345.08 396.46 345.93 C396.81 347.98 396.81 347.98 398 349 C398.28 351.29 398.45 353.57 398.62 355.87 C398.83 358.21 398.83 358.21 401 360 C401.35 362.33 401.68 364.67 402 367 C402.66 368.34 403.33 369.67 404 371 C404.34 372.3 404.63 373.62 404.88 374.94 C405.93 380.08 407.55 385 409.2 389.98 C409.96 392.83 410.04 395.08 410 398 C410.99 399.34 411.99 400.68 413 402 C414.76 407.64 416.11 413.39 417.5 419.13 C418.25 422.18 419.06 425.18 420.06 428.16 C420.96 430.88 421.55 433.5 422.06 436.31 C422.43 439.45 422.43 439.45 424 442 C424.28 444.29 424.45 446.57 424.62 448.87 C424.83 451.21 424.83 451.21 427 453 C427.34 455.33 427.67 457.67 428 460 C428.66 460.99 429.32 461.98 430 463 C430.36 465.02 430.5 467.01 430.66 469.06 C430.92 471.32 430.92 471.32 433 474 C433.33 476.33 433.67 478.67 434 481 C434.66 481.99 435.32 482.98 436 484 C436.36 486.02 436.5 488.01 436.66 490.06 C436.92 492.32 436.92 492.32 439 495 C440.67 500.24 441.89 505.61 443.21 510.95 C443.92 513.7 444.72 516.41 445.56 519.12 C446.88 523.39 447.79 527.67 448.57 532.07 C448.82 534 448.82 534 450 535 C450.23 537 450.45 538.99 450.62 540.99 C450.92 543.31 450.92 543.31 453 546 C453.6 548.01 453.6 548.01 454.06 550.12 C454.59 553.76 454.59 553.76 456 555 C456.28 557.25 456.45 559.51 456.62 561.77 C456.89 564.28 456.89 564.28 459 567 C459.6 569.01 459.6 569.01 460.06 571.12 C460.59 574.76 460.59 574.76 462 576 C462.28 578.29 462.45 580.57 462.62 582.87 C462.83 585.21 462.83 585.21 465 587 C465.74 589.66 466.39 592.31 467 595 C467.52 597.13 468.04 599.25 468.56 601.38 C468.81 602.39 469.06 603.41 469.32 604.46 C469.9 606.97 469.9 606.97 471 609 C471.04 611.33 471.04 613.67 471 616 C471.66 616 472.32 616 473 616 C473.06 615.29 473.12 614.58 473.18 613.85 C473.27 612.93 473.35 612.01 473.44 611.06 C473.52 610.15 473.6 609.23 473.68 608.29 C474 606 474 606 475 605 C475.35 603.47 475.65 601.92 475.94 600.38 C478.87 585.13 478.87 585.13 482 582 C482.16 580.85 482.33 579.69 482.5 578.5 C483 575 483 575 484 574 C484.33 572.55 484.61 571.09 484.88 569.62 C487.84 554.16 487.84 554.16 490 552 C490.23 550 490.45 548.01 490.62 546.01 C491 544 491 544 493 541 C493.16 539.82 493.33 538.65 493.5 537.44 C494 534 494 534 496 532 C496.58 529.98 496.58 529.98 496.94 527.62 C498.48 519.29 500.51 511.17 503.31 503.17 C504.27 500.14 504.89 497.07 505.47 493.95 C506 492 506 492 508 489 C508.36 486.67 508.7 484.34 509 482 C509.33 481.67 509.66 481.34 510 481 C510.33 479.53 510.61 478.05 510.88 476.56 C513.59 462.41 513.59 462.41 516 460 C516.28 457.75 516.45 455.49 516.62 453.23 C517 451 517 451 519 448 C519.66 445.95 519.66 445.95 520.12 443.81 C520.41 442.55 520.7 441.3 521 440 C521.66 440 522.32 440 523 440 C522.98 439.39 522.95 438.77 522.93 438.14 C522.9 436.92 522.9 436.92 522.88 435.69 C522.85 434.89 522.83 434.09 522.8 433.26 C523 431 523 431 525 428 C525.57 425.83 525.57 425.83 525.94 423.44 C528.52 409.48 528.52 409.48 531 407 C531.23 405.04 531.45 403.07 531.62 401.11 C532 399 532 399 532.91 397.25 C534.51 393.94 535.15 390.44 535.94 386.88 C540.01 368.99 540.01 368.99 542 367 C542.33 365.53 542.61 364.05 542.88 362.56 C543.89 357.25 545.36 352.15 547 347 C547.66 347 548.32 347 549 347 C548.94 345.14 548.94 345.14 548.88 343.25 C548.76 339.85 549.45 337.99 551 335 C551.36 333.47 551.67 331.93 551.94 330.38 C552.91 325.12 554.38 320.09 556 315 C556.66 315 557.32 315 558 315 C557.98 314.4 557.95 313.79 557.93 313.17 C557.91 312.37 557.89 311.57 557.88 310.75 C557.84 309.57 557.84 309.57 557.8 308.36 C558.02 305.72 558.78 304.34 560 302 C561.75 296.33 563.12 290.56 564.5 284.79 C565.42 281.04 566.56 277.56 568 274 C568.33 272.44 568.62 270.88 568.88 269.31 C569.73 264.75 571.23 260.79 573.05 256.54 C574.35 253.07 575 249.58 575.61 245.93 C576 244 576 244 577 243 C577.37 241.51 577.69 240.01 578 238.5 C578.89 234.11 578.89 234.11 580 233 C580.28 230.71 580.45 228.43 580.62 226.13 C581 224 581 224 583 222 C583.16 220.85 583.33 219.69 583.5 218.5 C584 215 584 215 586 213 C586.39 210.9 586.39 210.9 586.5 208.56 C586.73 205.06 586.96 204.06 589 201 C589.6 198.8 589.6 198.8 590 196.38 C590.16 195.49 590.33 194.6 590.5 193.69 C590.66 192.8 590.83 191.92 591 191 C594.93 172.07 594.93 172.07 598 169 C598.14 167.87 598.29 166.73 598.44 165.56 C599 162 599 162 601 160 C601.42 157.83 601.42 157.83 601.56 155.44 C601.9 151.1 601.9 151.1 603 150 C603.37 148.51 603.69 147.01 604 145.5 C604.89 141.11 604.89 141.11 606 140 C606.37 138.34 606.7 136.67 607 135 C607.89 130.11 607.89 130.11 609 129 C609.33 127.53 609.61 126.05 609.88 124.56 C612.59 110.41 612.59 110.41 615 108 C615.37 106.34 615.7 104.67 616 103 C616.89 98.11 616.89 98.11 618 97 C618.47 94.9 618.94 92.8 619.39 90.7 C622.32 77.68 622.32 77.68 624 76 C624.37 73.67 624.7 71.34 625 69 C626.49 68.5 626.49 68.5 628 68 C627.94 66.05 627.94 66.05 627.88 64.06 C627.88 57.91 628.55 52.17 632 47 C632.41 45.31 632.76 43.59 633.06 41.88 C633.9 37.1 633.9 37.1 635 36 C635.32 34.46 635.61 32.92 635.88 31.38 C637.69 22.13 642.51 10.06 650 4 C655.06 0.66 658.73 -0.58 664.85 -0.49 C665.61 -0.49 666.37 -0.5 667.15 -0.5 C669.69 -0.51 672.21 -0.49 674.75 -0.47 C676.57 -0.47 678.39 -0.47 680.21 -0.48 C685.14 -0.48 690.07 -0.46 695 -0.44 C700.16 -0.42 705.32 -0.42 710.48 -0.42 C719.14 -0.41 727.8 -0.39 736.46 -0.36 C747.58 -0.32 758.71 -0.3 769.84 -0.29 C779.39 -0.28 788.95 -0.26 798.51 -0.24 C801.59 -0.24 804.66 -0.23 807.74 -0.23 C812.57 -0.22 817.39 -0.2 822.22 -0.19 C823.99 -0.18 825.77 -0.18 827.54 -0.17 C829.96 -0.17 832.37 -0.16 834.78 -0.15 C835.49 -0.15 836.2 -0.15 836.93 -0.15 C841.77 -0.11 841.77 -0.11 844 1 C844 1.66 844 2.32 844 3 C844.58 3.25 845.15 3.5 845.75 3.75 C848.46 5.25 850.06 6.57 852 9 C852.45 12.21 852.45 12.21 852.39 15.95 C852.38 16.94 852.38 16.94 852.37 17.95 C852.35 20.05 852.3 22.15 852.25 24.25 C852.23 25.68 852.21 27.1 852.2 28.53 C852.15 32.02 852.08 35.51 852 39 C850.68 39.66 849.36 40.32 848 41 C848.06 42.28 848.12 43.56 848.19 44.88 C848.2 50.21 847.03 55.07 845 60 C844.34 60.66 843.68 61.32 843 62 C842.84 63.18 842.67 64.35 842.5 65.56 C842.34 66.7 842.17 67.83 842 69 C841.34 69.33 840.68 69.66 840 70 C839.63 72.33 839.29 74.66 839 77 C838.67 77.33 838.34 77.66 838 78 C837.86 79.11 837.71 80.23 837.56 81.38 C837 85 837 85 835 88 C834.44 89.94 834.44 89.94 834.06 92.06 C832.1 101.52 829.05 110.84 825.5 119.81 C823.85 124.12 822.84 128.54 821.76 133.02 C818.96 144.04 818.96 144.04 817 146 C816.63 148.33 816.3 150.66 816 153 C815.01 153.33 814.02 153.66 813 154 C813.06 155.52 813.06 155.52 813.12 157.06 C812.98 161.73 812.15 165.78 809.98 169.95 C808.98 172.03 808.54 173.8 808.12 176.06 C807.17 180.69 805.61 184.96 803.94 189.38 C803.14 191.61 802.52 193.76 802 196.06 C801.08 200.07 799.53 203.73 797.95 207.53 C796.63 210.96 795.84 214.43 795 218 C794.67 218.33 794.34 218.66 794 219 C793.68 220.51 793.39 222.04 793.12 223.56 C790.93 235.07 790.93 235.07 788 238 C787.2 241.51 786.52 245.05 785.82 248.58 C785.13 251.44 784.36 253.45 783 256 C782.61 257.39 782.25 258.78 781.94 260.19 C781 264 781 264 780 265 C779.67 266.33 779.39 267.66 779.12 269 C777.84 275 776.43 280.86 773 286 C772.44 288.32 771.95 290.66 771.5 293 C770.22 299.67 770.22 299.67 768 303 C767.27 305.33 766.62 307.64 766 310 C763.2 320.54 763.2 320.54 761.62 325.06 C760.05 329.65 758.78 334.32 757.5 339 C756.01 344.45 754.48 349.85 752.61 355.19 C752.01 356.98 751.5 358.8 751 360.62 C750 364 750 364 748.62 367.06 C746.55 371.71 745.34 376.64 743.98 381.54 C740.63 393.37 740.63 393.37 739 395 C738.67 396.49 738.39 398 738.12 399.5 C737.32 403.72 736.2 407.67 734.79 411.72 C733.96 414.13 733.22 416.56 732.5 419 C731.54 422.23 730.53 425.43 729.44 428.62 C728.44 431.54 727.63 434.44 726.94 437.44 C726 441 726 441 724 443 C723.75 445 723.49 447.01 723.34 449.03 C723 451 723 451 721 454 C720.44 456.13 719.95 458.28 719.5 460.44 C718.69 464.29 717.85 467.53 716 471 C715.33 473.33 714.66 475.67 714 478 C713.67 478.33 713.34 478.66 713 479 C712.86 480.13 712.71 481.27 712.56 482.44 C712 486 712 486 710 488 C709.43 490.09 709.43 490.09 709.06 492.5 C707.51 500.91 704.74 508.92 702 517 C701.44 518.69 700.87 520.37 700.31 522.06 C699.88 523.38 699.44 524.69 699 526 C698.34 526 697.68 526 697 526 C697.06 527.67 697.06 527.67 697.12 529.38 C697 533 697 533 695 535 C694.63 537.33 694.3 539.66 694 542 C693.67 542.33 693.34 542.66 693 543 C692.7 544.47 692.44 545.95 692.19 547.44 C691.31 552.05 689.9 556.1 688 560.38 C686.95 563.14 686.25 565.91 685.56 568.77 C684.54 572.85 683.28 576.86 682.06 580.88 C681.68 582.13 681.68 582.13 681.3 583.4 C680.79 585.08 680.28 586.77 679.77 588.45 C678.98 591.07 678.2 593.69 677.41 596.31 C676.43 599.6 675.41 602.87 674.31 606.12 C674.06 606.87 673.81 607.62 673.55 608.38 C673.37 608.92 673.19 609.45 673 610 C672.34 610 671.68 610 671 610 C671.06 611.67 671.06 611.67 671.12 613.38 C671 617 671 617 669 619 C668.43 621.09 668.43 621.09 668.06 623.5 C666.64 631.2 664.19 638.52 661.68 645.92 C661.08 647.76 660.53 649.63 660 651.5 C658.57 656.51 657.06 661.53 655 666.33 C653.37 670.69 652.67 675.25 651.78 679.82 C651 683 651 683 649 686 C648.34 688.05 648.34 688.05 647.88 690.19 C647.59 691.45 647.3 692.7 647 694 C646.34 694 645.68 694 645 694 C645.06 695.39 645.06 695.39 645.12 696.81 C645 700 645 700 643 703 C642.65 705.33 642.32 707.66 642 710 C641.35 712.01 640.68 714 640 716 C639.34 718.27 638.7 720.54 638.06 722.81 C633.8 737.8 633.8 737.8 631 742 C629.68 746.19 628.63 750.43 627.6 754.7 C622.92 774.11 622.92 774.11 619 780 C618.44 782.32 617.95 784.66 617.5 787 C616.22 793.67 616.22 793.67 614 797 C613.07 800.38 612.25 803.74 611.57 807.17 C610.57 812.15 609.1 816.66 607.11 821.33 C606.34 823.18 605.63 825.06 604.98 826.95 C602 835.16 597.6 840.34 591 846 C590.04 846.85 590.04 846.85 589.07 847.71 C583.9 850.93 577.07 850.14 571.19 850.12 C570.2 850.12 569.21 850.13 568.19 850.13 C564.87 850.13 561.55 850.12 558.22 850.12 C555.82 850.12 553.42 850.12 551.02 850.12 C545.79 850.12 540.56 850.12 535.33 850.12 C527.55 850.11 519.78 850.11 512 850.11 C498.92 850.12 485.85 850.11 472.77 850.11 C459.82 850.1 446.86 850.1 433.91 850.09 C433.11 850.09 432.3 850.09 431.47 850.09 C427.39 850.09 423.3 850.09 419.21 850.09 C390.24 850.09 361.28 850.08 332.32 850.08 C304.18 850.07 276.04 850.06 247.9 850.05 C247.03 850.05 246.17 850.05 245.27 850.05 C236.56 850.05 227.85 850.05 219.14 850.05 C201.4 850.05 183.66 850.05 165.92 850.04 C164.69 850.04 164.69 850.04 163.45 850.04 C108.96 850.03 54.48 850.02 0 850 C0 849.01 0 848.02 0 847 C0.78 846.71 1.57 846.42 2.38 846.12 C5.1 845.15 5.1 845.15 7 843 C11.94 840.99 16.87 839.44 22 838 C29.99 835.47 37.73 832.73 45.2 828.91 C48.54 827.22 51.82 826.05 55.44 825.06 C60.05 823.69 63.82 821.83 67.75 819.06 C70.54 817.29 72.88 816.21 75.94 815.06 C79.86 813.57 82.86 811.83 86.16 809.28 C88.31 807.78 90.52 806.69 92.88 805.56 C97.14 803.5 101.01 801.13 104.89 798.43 C107.21 796.86 109.59 795.43 112 794 C117.83 790.4 123.51 786.72 128.95 782.55 C131.39 780.7 133.88 778.91 136.38 777.12 C137.21 776.53 138.04 775.93 138.9 775.32 C141 774 141 774 143 774 C143.33 773.01 143.66 772.02 144 771 C144.66 771 145.32 771 146 771 C146 770.34 146 769.68 146 769 C151.41 765 151.41 765 154 765 C154.33 764.01 154.66 763.02 155 762 C156.53 760.46 156.53 760.46 158.5 758.81 C159.21 758.21 159.93 757.6 160.66 756.98 C161.82 756 161.82 756 163 755 C164.65 753.57 166.3 752.13 167.94 750.69 C168.69 750.03 169.44 749.38 170.21 748.7 C172.09 747.11 172.09 747.11 173 745 C173.66 745 174.32 745 175 745 C175.33 744.01 175.66 743.02 176 742 C176.96 741.81 176.96 741.81 177.94 741.62 C178.62 741.42 179.3 741.21 180 741 C180.67 739.34 181.34 737.67 182 736 C183.62 734.61 185.29 733.27 187 732 C187.33 731.34 187.66 730.68 188 730 C188.66 730 189.32 730 190 730 C190.4 729.11 190.4 729.11 190.8 728.2 C192.04 725.92 193.3 724.53 195.19 722.75 C200.48 717.6 205.29 712.41 209 706 C210.2 704.54 211.4 703.09 212.62 701.65 C219.37 693.56 225.49 684.75 230.86 675.69 C232 674 232 674 233.6 672.41 C235.3 670.7 235.59 669.35 236 667 C236.66 667 237.32 667 238 667 C238.27 666.09 238.54 665.18 238.81 664.25 C239.92 661.23 241.06 659.5 243 657 C243.67 655.33 244.33 653.67 245 652 C245.87 650.34 246.77 648.7 247.69 647.06 C250.76 641.51 253.59 635.86 256.39 630.16 C258 627 258 627 259.59 624.44 C261.13 621.78 262.03 619.25 262.94 616.31 C264.48 611.52 266.21 606.86 268.12 602.2 C269.2 599.51 270.13 596.77 271 594 C271.66 594 272.32 594 273 594 C272.94 592.33 272.94 592.33 272.88 590.62 C273 587 273 587 275 585 C275.16 583.85 275.33 582.69 275.5 581.5 C276 578 276 578 278 576 C278.39 573.9 278.39 573.9 278.5 571.56 C278.73 568.06 278.96 567.06 281 564 C281.9 556.56 282.1 549.61 277.41 543.48 C275.39 541.36 273.7 540.17 271 539 C270.44 538.75 269.88 538.5 269.3 538.24 C261.93 535.35 254.6 535.58 246.8 535.63 C245.27 535.63 243.75 535.62 242.23 535.62 C238.11 535.61 234 535.62 229.89 535.63 C225.58 535.64 221.27 535.64 216.96 535.64 C209.72 535.63 202.49 535.65 195.26 535.66 C186.9 535.69 178.54 535.69 170.18 535.68 C162.12 535.68 154.07 535.68 146.02 535.69 C142.6 535.7 139.17 535.7 135.75 535.7 C131.72 535.69 127.69 535.7 123.67 535.72 C122.19 535.72 120.71 535.72 119.23 535.72 C117.21 535.72 115.2 535.73 113.18 535.74 C112.06 535.74 110.93 535.74 109.76 535.75 C106.79 535.8 106.79 535.8 104 538 C102 538.67 100 539.33 98 540 C91.86 542.51 88.64 546.2 85.31 551.88 C84.88 552.58 84.45 553.28 84 554 C83.34 554 82.68 554 82 554 C81.92 554.99 81.83 555.98 81.75 557 C80.78 563.78 77.21 568.77 73 574 C72.63 575.32 72.29 576.66 72 578 C71.34 578.33 70.68 578.66 70 579 C69.35 581.02 69.35 581.02 69 583 C68.34 583 67.68 583 67 583 C66.79 583.66 66.59 584.32 66.38 585 C64.48 589.13 61.81 592.45 59 596 C58.29 596.91 58.29 596.91 57.57 597.85 C56.43 599.27 55.22 600.64 54 602 C53.34 602 52.68 602 52 602 C51.9 602.58 51.79 603.17 51.68 603.77 C50.9 606.34 49.82 607.73 48.06 609.75 C47.54 610.36 47.01 610.98 46.47 611.61 C45 613 45 613 43 613 C42.74 613.6 42.49 614.2 42.23 614.82 C40.86 617.25 39.65 618.24 37.38 619.81 C32.12 623.59 27.15 627.68 22.75 632.44 C21 634 21 634 17 634 C16.78 634.59 16.55 635.18 16.32 635.78 C14.6 638.67 12.68 639.76 9.81 641.5 C8.89 642.07 7.97 642.63 7.02 643.22 C-4.98 650.29 -17.02 656.9 -30 662 C-31.35 662.57 -31.35 662.57 -32.72 663.16 C-36.48 664.74 -39.93 666.14 -44 666.62 C-47.11 666.7 -47.11 666.7 -49 669 C-51.33 669.37 -53.66 669.7 -56 670 C-56.33 670.33 -56.66 670.66 -57 671 C-59.25 671.28 -61.51 671.45 -63.77 671.62 C-66.28 671.89 -66.28 671.89 -69 674 C-71.36 674.43 -73.74 674.77 -76.12 675.06 C-80.39 675.23 -80.39 675.23 -84 677 C-91.01 678.09 -98.03 678.33 -105.11 678.61 C-105.97 678.64 -106.83 678.68 -107.71 678.72 C-108.49 678.75 -109.26 678.78 -110.06 678.81 C-112.08 678.89 -112.08 678.89 -114 680 C-116.08 680.1 -118.17 680.13 -120.25 680.13 C-121.5 680.13 -122.75 680.14 -124.03 680.14 C-125.34 680.13 -126.65 680.13 -128 680.12 C-129.31 680.13 -130.62 680.13 -131.97 680.14 C-133.22 680.14 -134.46 680.13 -135.75 680.13 C-136.9 680.13 -138.05 680.13 -139.23 680.13 C-142 680 -142 680 -144 679 C-145.91 678.8 -147.83 678.65 -149.75 678.54 C-150.92 678.46 -152.08 678.38 -153.29 678.3 C-155.73 678.14 -158.18 677.99 -160.62 677.84 C-170.3 677.19 -181.16 676.42 -190 672 C-192.85 671.69 -195.7 671.49 -198.57 671.28 C-201 671 -201 671 -202 670 C-203.33 669.67 -204.66 669.39 -206 669.12 C-210.81 668.1 -215.37 666.65 -220 665 C-220.68 664.76 -221.36 664.53 -222.06 664.28 C-226.2 662.8 -230.07 661.04 -233.95 658.96 C-236.08 657.91 -236.08 657.91 -238.77 657.11 C-242.53 655.82 -246.02 654.16 -249.56 652.38 C-250.26 652.02 -250.96 651.67 -251.68 651.31 C-273.66 640.08 -294.57 624.49 -311 606 C-311 605.34 -311 604.68 -311 604 C-311.66 604 -312.32 604 -313 604 C-313 603.34 -313 602.68 -313 602 C-313.58 601.76 -314.15 601.52 -314.75 601.27 C-317.43 599.76 -319.04 598.01 -321.06 595.69 C-321.73 594.93 -322.41 594.17 -323.1 593.39 C-324.98 591.03 -326.47 588.6 -328 586 C-328.77 585.26 -328.77 585.26 -329.56 584.5 C-331 583 -331 583 -331.94 580.62 C-333.17 577.57 -334.91 575.54 -337 573 C-338.03 571.35 -339.03 569.68 -340 568 C-340.45 567.26 -340.91 566.51 -341.38 565.75 C-342.8 563.35 -344.19 560.93 -345.56 558.5 C-346.18 557.4 -346.18 557.4 -346.82 556.28 C-348 554 -348 554 -348.95 551.61 C-350.2 548.51 -351.75 545.64 -353.31 542.69 C-356.75 536.05 -358.99 529.27 -361.05 522.11 C-361.69 519.16 -361.69 519.16 -363 518 C-363.14 516.87 -363.29 515.73 -363.44 514.56 C-363.65 510.96 -363.65 510.96 -366 509 C-366.38 506.7 -366.51 504.42 -366.66 502.09 C-366.83 499.78 -366.83 499.78 -369 498 C-369.34 495.98 -369.34 495.98 -369.5 493.62 C-369.73 490.26 -369.73 490.26 -371 487.19 C-372.7 483.46 -372.44 479.35 -372.57 475.31 C-372.63 471.21 -372.63 471.21 -375 468 C-376.66 459.58 -376.15 450.63 -376.13 442.09 C-376.13 440.68 -376.13 439.26 -376.14 437.85 C-376.14 434.9 -376.14 431.95 -376.13 429 C-376.12 425.26 -376.13 421.51 -376.13 417.76 C-376.14 414.84 -376.14 411.92 -376.13 409.01 C-376.13 407.63 -376.13 406.25 -376.14 404.86 C-376.16 386.89 -376.16 386.89 -375 381 C-374.34 380.34 -373.68 379.68 -373 379 C-372.74 376.52 -372.58 374.11 -372.5 371.62 C-372.36 367.29 -372.1 363.87 -370 360 C-369.64 357.44 -369.5 354.92 -369.34 352.34 C-369 350 -369 350 -367 347 C-366.83 345.82 -366.67 344.65 -366.5 343.44 C-366 340 -366 340 -364 338 C-363.8 336.37 -363.6 334.75 -363.41 333.12 C-362.76 329.73 -361.37 326.69 -360.03 323.53 C-359.1 321.25 -358.34 318.98 -357.62 316.62 C-356.08 311.85 -353.84 307.52 -351.55 303.06 C-349.61 299.24 -347.86 295.34 -346.1 291.43 C-344.81 288.58 -343.43 285.78 -342 283 C-341.34 283 -340.68 283 -340 283 C-339.75 282.14 -339.5 281.28 -339.25 280.4 C-337.9 276.73 -336.18 273.86 -334 270.62 C-333.3 269.57 -332.6 268.51 -331.88 267.41 C-331.26 266.62 -330.64 265.82 -330 265 C-329.34 265 -328.68 265 -328 265 C-327.92 264.28 -327.85 263.56 -327.77 262.82 C-326.8 259.27 -325.19 257.56 -322.69 254.88 C-321.52 253.6 -321.52 253.6 -320.32 252.3 C-318 250 -318 250 -315.89 248.51 C-313.54 246.64 -312.49 244.6 -311 242 C-309.73 240.43 -308.41 238.88 -307.06 237.38 C-306.39 236.62 -305.72 235.86 -305.04 235.09 C-303.11 233.12 -301.32 231.47 -299 230 C-298.01 230 -297.02 230 -296 230 C-295.74 229.41 -295.48 228.82 -295.22 228.21 C-291.74 221.91 -284.35 217.7 -278.54 213.74 C-276.94 212.64 -275.36 211.52 -273.81 210.36 C-264.91 203.74 -254.86 198.91 -244.96 193.98 C-243.12 193.06 -241.31 192.09 -239.5 191.12 C-235.14 188.94 -230.64 187.48 -226 186 C-223.31 185.1 -220.73 184.1 -218.12 183 C-211.91 180.45 -205.47 178.75 -199 177 C-198.25 176.78 -197.49 176.56 -196.71 176.34 C-192.06 175.05 -187.51 174.63 -182.71 174.34 C-179.94 174.09 -179.94 174.09 -177.25 173 C-173.04 171.7 -169.07 171.58 -164.69 171.44 C-159.43 171.72 -159.43 171.72 -155 170 C-146.19 168.52 -137.08 168.85 -128.17 168.87 C-125.74 168.88 -123.31 168.87 -120.88 168.86 C-119.31 168.86 -117.74 168.87 -116.17 168.87 C-115.46 168.87 -114.74 168.86 -114 168.86 C-102.08 168.92 -102.08 168.92 -100 171 C-96.29 171.24 -92.59 171.4 -88.88 171.52 C-84.21 171.72 -80.42 172.36 -76 174 C-73.9 174.33 -73.9 174.33 -71.88 174.44 C-60.09 175.57 -48.27 179.55 -37.37 184.03 C-35.26 184.89 -33.14 185.71 -31 186.5 C-29.67 187 -28.33 187.5 -27 188 C-26.15 188.32 -25.3 188.64 -24.42 188.97 C-23.54 189.31 -22.66 189.65 -21.75 190 C-20.94 190.31 -20.13 190.62 -19.3 190.94 C-17 192 -17 192 -15.2 193.38 C-12.03 195.72 -8.54 197.29 -5 199 C-0.72 201.06 3.29 203 7 206 C7.85 206.5 8.69 206.99 9.56 207.5 C12 209 12 209 13.38 210.44 C15.42 212.4 17.77 213.54 20.23 214.89 C22.87 216.54 24.84 218.78 27 221 C27.75 221.44 28.51 221.88 29.29 222.34 C32.46 224.28 35.05 226.56 37.81 229.06 C38.79 229.94 39.76 230.82 40.77 231.72 C43 234 43 234 43 236 C43.99 236.33 44.98 236.66 46 237 C46 237.66 46 238.32 46 239 C46.66 239 47.32 239 48 239 C48 239.66 48 240.32 48 241 C48.6 241.24 49.2 241.49 49.82 241.74 C52.41 243.24 53.32 244.64 54.88 247.19 C56.81 250.24 58.79 253.04 61.19 255.75 C67 262.33 67 262.33 67 266 C67.66 266 68.32 266 69 266 C69.25 266.74 69.5 267.49 69.75 268.25 C70.82 271.05 70.82 271.05 72.89 272.82 C75.26 275.27 76.52 277.57 78 280.62 C78.51 281.68 79.03 282.74 79.56 283.83 C80.84 286.65 81.98 289.47 83.06 292.38 C84.73 296.74 86.84 299.58 90 303 C90.33 303.66 90.66 304.32 91 305 C93.13 306.33 93.13 306.33 95.69 307.56 C96.54 308 97.39 308.43 98.26 308.88 C103.26 310.92 108.2 311.13 113.55 311.13 C114.85 311.13 116.15 311.13 117.49 311.14 C118.92 311.13 120.35 311.13 121.78 311.13 C123.3 311.13 124.81 311.13 126.33 311.13 C130.43 311.14 134.54 311.14 138.64 311.13 C142.95 311.13 147.25 311.13 151.55 311.14 C158.78 311.14 166.01 311.14 173.24 311.13 C181.58 311.12 189.93 311.13 198.27 311.13 C205.44 311.14 212.62 311.14 219.79 311.13 C224.07 311.13 228.35 311.13 232.63 311.14 C236.66 311.14 240.69 311.14 244.71 311.13 C246.19 311.13 247.66 311.13 249.13 311.13 C262.61 311.98 262.61 311.98 274.31 306.81 C274.95 306.24 275.58 305.67 276.24 305.08 C280.34 300.24 281.4 296.09 281.31 289.81 C281.31 288.6 281.3 287.39 281.3 286.14 C281.23 282.84 281.23 282.84 279 280 C278.64 277.72 278.5 275.46 278.34 273.16 C278.11 270.71 278.11 270.71 276 268 C275.32 265.67 274.65 263.34 274 261 C273.67 260.67 273.34 260.34 273 260 C272.86 258.87 272.71 257.73 272.56 256.56 C272.35 252.96 272.35 252.96 270 251 C268.25 247.27 266.83 243.55 265.56 239.62 C263.68 233.83 261.2 228.36 258.44 222.94 C257.31 220.62 256.38 218.41 255.5 216 C253.25 209.89 250.21 204.68 246.5 199.34 C244.78 196.65 243.42 193.86 242 191 C240.17 187.85 238.3 184.73 236.43 181.61 C235 179 235 179 235 177 C234.34 177 233.68 177 233 177 C232.63 176.2 232.26 175.39 231.88 174.56 C227.02 164.96 219.98 156.52 213.5 147.99 C212.5 146.66 211.5 145.32 210.52 143.97 C206.61 138.63 202.27 133.88 197.68 129.11 C197.13 128.54 196.59 127.96 196.02 127.37 C195.54 126.86 195.05 126.36 194.55 125.84 C193 124 193 124 191.11 121.1 C189.03 118.05 186.87 115.67 184.23 113.11 C183.34 112.24 182.46 111.36 181.54 110.46 C180.16 109.12 180.16 109.12 178.75 107.75 C176.91 105.96 175.07 104.16 173.23 102.36 C172.42 101.57 171.61 100.78 170.77 99.97 C169 98 169 98 169 96 C168.27 95.74 167.55 95.48 166.8 95.22 C163.88 93.95 161.69 92.46 159.19 90.5 C158.4 89.89 157.61 89.28 156.79 88.66 C156.2 88.11 155.61 87.56 155 87 C155 86.34 155 85.68 155 85 C154.16 84.63 154.16 84.63 153.31 84.25 C150.57 82.77 148.41 80.98 146 79 C145.23 78.42 144.47 77.85 143.68 77.25 C142.86 76.63 142.03 76.01 141.19 75.38 C140.4 74.78 139.61 74.19 138.79 73.59 C138.2 73.06 137.61 72.54 137 72 C137 71.34 137 70.68 137 70 C136.34 69.79 135.68 69.59 135 69.38 C131.56 67.8 128.89 65.75 125.9 63.44 C123.7 61.77 121.39 60.4 119 59 C116.65 57.45 114.32 55.88 111.99 54.3 C110.04 52.97 110.04 52.97 108 52 C108 51.34 108 50.68 108 50 C107.26 49.9 106.53 49.8 105.77 49.69 C102.7 48.93 101.16 47.87 98.69 45.94 C92.47 41.4 85.72 38.19 78.81 34.87 C77.19 34.09 75.58 33.28 73.97 32.48 C70.58 30.79 67.13 29.21 63.69 27.62 C59.36 25.63 55.13 23.58 51 21.19 C47.42 19.14 44.01 18.04 40 17 C35.15 15.35 30.36 13.61 25.69 11.5 C22.16 10.06 18.74 9.1 15.06 8.12 C9.23 6.51 4.86 4.59 0 1 C0 0.67 0 0.34 0 0 Z " fill="#F8F9FB" transform="translate(402,215)"/>
</svg>
