<?xml version="1.0" encoding="UTF-8"?>
<!-- Generator: visioncortex VTracer 0.6.3 -->
<svg version="1.1" xmlns="http://www.w3.org/2000/svg" width="1280" height="810">
<path d="M0 0 C1.1 -0.01 1.1 -0.01 2.21 -0.01 C4.68 -0.02 7.14 -0.03 9.61 -0.03 C11.37 -0.04 13.13 -0.04 14.89 -0.05 C19.69 -0.07 24.49 -0.08 29.29 -0.09 C32.28 -0.09 35.28 -0.1 38.28 -0.1 C47.65 -0.12 57.03 -0.14 66.4 -0.15 C77.23 -0.15 88.05 -0.18 98.87 -0.22 C107.24 -0.25 115.6 -0.27 123.96 -0.27 C128.96 -0.27 133.95 -0.28 138.95 -0.31 C143.65 -0.33 148.36 -0.33 153.06 -0.32 C154.78 -0.32 156.51 -0.33 158.23 -0.34 C176.15 -0.48 176.15 -0.48 183.88 6.74 C186.97 10.88 188.23 15.75 189.66 20.65 C189.96 21.63 190.26 22.6 190.57 23.61 C191.43 26.45 192.27 29.3 193.1 32.15 C193.51 33.52 193.92 34.9 194.33 36.28 C196.15 42.51 197.77 48.77 199.31 55.07 C201.08 61.99 203.14 68.84 205.13 75.7 C206 78.79 206.79 81.89 207.54 85.02 C208.4 88.49 209.3 91.9 210.48 95.27 C212.82 102.04 214.58 108.99 216.48 115.89 C218.27 122.37 220.14 128.83 222.01 135.28 C223.53 140.59 224.92 145.94 226.35 151.27 C228.84 160.58 231.42 169.87 234.1 179.12 C235.43 183.74 236.67 188.35 237.79 193.02 C238.53 196.1 239.3 198.61 240.6 201.52 C242.49 206.1 243.34 210.69 244.26 215.55 C245.02 218.8 246.08 221.76 247.3 224.86 C249.29 230.53 250.46 236.47 251.85 242.3 C253.07 247.34 254.4 252.15 256.31 256.97 C258.12 261.94 259.36 267.1 260.73 272.21 C261.04 273.36 261.35 274.5 261.67 275.68 C263.15 281.18 264.37 286.51 265.1 292.15 C265.81 293.8 266.53 295.46 267.29 297.1 C268.27 299.58 268.86 302.05 269.48 304.65 C270.59 309.34 271.97 313.84 273.54 318.4 C276.83 327.97 279.32 337.75 281.16 347.71 C281.94 351.82 283.44 355.3 285.1 359.15 C285.85 361.87 286.49 364.6 287.15 367.35 C288.39 372.29 289.77 377.18 291.16 382.08 C291.42 383 291.68 383.91 291.94 384.85 C292.19 385.72 292.44 386.59 292.7 387.49 C292.92 388.26 293.14 389.04 293.37 389.84 C294.16 392.33 295.1 394.73 296.1 397.15 C296.29 396.46 296.48 395.78 296.68 395.07 C297.57 391.89 298.46 388.71 299.35 385.52 C299.67 384.38 299.99 383.23 300.32 382.05 C301.98 376.14 303.64 370.23 305.35 364.33 C306.54 360.19 307.64 356.03 308.66 351.83 C309.69 347.62 310.93 343.57 312.35 339.48 C313.21 336.81 313.88 334.12 314.54 331.4 C315.58 327.09 316.77 322.87 318.1 318.65 C319.38 314.56 320.54 310.5 321.54 306.33 C322.68 301.62 324.06 297.01 325.54 292.4 C327.52 286.22 329.19 280.02 330.72 273.72 C331.76 269.44 332.94 265.24 334.25 261.04 C335.69 256.12 336.95 251.15 338.21 246.19 C339.82 239.94 341.58 233.73 344.11 227.78 C345.23 224.79 345.85 221.88 346.47 218.74 C348.03 211.25 350.03 203.93 352.16 196.58 C352.51 195.35 352.87 194.12 353.23 192.86 C354.67 187.85 356.13 182.97 358.1 178.15 C358.49 176.64 358.85 175.11 359.16 173.58 C359.76 170.76 360.38 167.95 361.1 165.15 C361.76 165.15 362.42 165.15 363.1 165.15 C363.02 163.7 363.02 163.7 362.95 162.23 C362.95 157.51 364.21 153.27 365.54 148.77 C365.77 147.95 366 147.14 366.23 146.29 C367.95 140.3 367.95 140.3 369.1 139.15 C369.22 138.16 369.35 137.17 369.48 136.15 C369.84 133.4 370.43 130.95 371.35 128.33 C373.78 121.42 375.59 114.31 377.52 107.24 C378.67 103.09 379.87 98.96 381.06 94.82 C382.7 89.18 384.28 83.54 385.66 77.83 C386.69 73.63 387.93 69.59 389.35 65.5 C390.55 61.73 391.44 57.89 392.35 54.04 C393.13 51.02 394.11 48.11 395.1 45.15 C396.13 41.7 397.11 38.23 398.1 34.77 C398.49 33.41 398.49 33.41 398.89 32.02 C400.05 27.97 401.17 23.92 402.14 19.81 C403.97 12.83 406.7 5.99 413.1 2.15 C416.53 0.58 419.22 -0.11 422.99 -0.12 C423.95 -0.13 424.9 -0.14 425.89 -0.15 C427.45 -0.14 427.45 -0.14 429.04 -0.14 C430.14 -0.15 431.24 -0.16 432.38 -0.16 C436.02 -0.18 439.67 -0.19 443.31 -0.19 C445.85 -0.2 448.38 -0.2 450.92 -0.21 C456.23 -0.22 461.54 -0.22 466.85 -0.22 C472.99 -0.22 479.12 -0.24 485.25 -0.27 C491.16 -0.3 497.07 -0.31 502.98 -0.31 C505.49 -0.31 508 -0.32 510.51 -0.34 C514.02 -0.36 517.52 -0.35 521.03 -0.34 C522.07 -0.35 523.11 -0.36 524.17 -0.37 C531.37 -0.31 534.7 0.94 539.96 5.9 C541.65 9.24 541.5 12.49 541.41 16.15 C541.42 16.86 541.42 17.57 541.42 18.3 C541.38 22.19 540.96 24.78 539.1 28.15 C538.23 31.43 537.44 34.73 536.69 38.04 C535.59 42.66 533.99 46.77 532.1 51.15 C531.21 53.94 530.47 56.76 529.73 59.58 C526.66 70.9 523.16 82.03 519.41 93.14 C516.89 100.59 514.5 107.97 512.71 115.65 C511.44 120.86 509.6 125.85 507.66 130.85 C506.02 135.21 504.79 139.64 503.6 144.15 C502.26 149.22 500.78 154.12 498.89 159.01 C497.32 163.28 496.08 167.66 494.79 172.02 C492.65 179.15 490.44 186.23 488.04 193.27 C485.53 200.63 483.38 208.05 481.28 215.53 C479.48 221.92 477.47 228.18 475.32 234.45 C473.72 239.29 472.29 244.18 470.89 249.08 C469.91 252.46 468.89 255.82 467.75 259.16 C465.66 265.36 463.82 271.64 461.94 277.9 C458.8 288.36 455.63 298.8 452.08 309.13 C450.08 315.04 448.41 321.02 446.84 327.05 C445.62 331.62 444 335.8 442.1 340.15 C441.56 341.93 441.06 343.72 440.6 345.52 C439.79 348.72 438.88 351.84 437.82 354.96 C436.36 359.28 435.03 363.63 433.73 368 C433.51 368.71 433.3 369.41 433.08 370.14 C432.2 373.1 431.31 376.06 430.43 379.01 C429.78 381.2 429.13 383.38 428.48 385.56 C428.28 386.22 428.09 386.88 427.89 387.55 C426.57 391.92 424.92 395.98 423.1 400.15 C422.61 401.91 422.18 403.68 421.79 405.46 C420.55 410.68 418.96 415.7 417.23 420.77 C414.82 427.8 412.71 434.86 410.84 442.05 C409.62 446.62 407.99 450.8 406.1 455.15 C405.59 456.95 405.13 458.76 404.73 460.58 C403.52 465.61 402.13 470.53 400.6 475.46 C400.4 476.12 400.2 476.77 399.99 477.45 C398.99 480.64 397.87 483.69 396.54 486.76 C395.21 489.88 394.34 492.78 393.6 496.08 C392.67 500.19 391.41 504 389.89 507.93 C388.73 511.18 387.86 514.48 386.96 517.81 C380.57 541.44 380.57 541.44 371.1 548.15 C366.79 549.85 363.19 550.4 358.57 550.4 C356.62 550.41 356.62 550.41 354.62 550.41 C353.19 550.41 351.75 550.41 350.31 550.4 C348.77 550.4 347.24 550.41 345.71 550.41 C341.49 550.42 337.28 550.41 333.07 550.41 C328.52 550.4 323.98 550.41 319.44 550.42 C310.54 550.43 301.64 550.42 292.74 550.42 C285.51 550.41 278.28 550.41 271.05 550.41 C269.51 550.42 269.51 550.42 267.93 550.42 C265.84 550.42 263.76 550.42 261.67 550.42 C242.08 550.42 222.49 550.42 202.9 550.41 C186.08 550.4 169.25 550.4 152.43 550.41 C132.9 550.42 113.38 550.42 93.86 550.42 C91.78 550.42 89.7 550.42 87.62 550.41 C86.59 550.41 85.57 550.41 84.51 550.41 C77.29 550.41 70.06 550.42 62.84 550.42 C54.04 550.43 45.24 550.42 36.44 550.41 C31.95 550.41 27.46 550.41 22.96 550.41 C18.86 550.42 14.75 550.42 10.64 550.4 C9.15 550.4 7.66 550.4 6.17 550.41 C4.16 550.41 2.14 550.41 0.12 550.4 C-1 550.4 -2.12 550.4 -3.28 550.4 C-5.9 550.15 -5.9 550.15 -7.9 548.15 C-7.24 548.15 -6.58 548.15 -5.9 548.15 C-5.9 547.49 -5.9 546.83 -5.9 546.15 C-4.77 545.75 -3.63 545.35 -2.46 544.94 C-0.94 544.41 0.58 543.87 2.1 543.33 C2.84 543.07 3.59 542.81 4.35 542.54 C20 537.03 34.5 530.02 49.1 522.15 C49.85 521.75 50.6 521.35 51.37 520.94 C56.89 517.94 62.11 514.59 67.29 511.02 C68.11 510.45 68.94 509.88 69.79 509.29 C86.79 497.47 101.73 483.98 115.98 468.96 C117 467.88 117 467.88 118.05 466.78 C118.68 466.1 119.31 465.43 119.97 464.73 C120.8 463.84 120.8 463.84 121.66 462.92 C123.15 461.09 124.07 459.27 125.1 457.15 C126.43 455.81 127.77 454.48 129.1 453.15 C130.64 451.02 132.14 448.89 133.6 446.71 C135.73 443.56 137.86 440.45 140.24 437.48 C141.86 435.45 143.12 433.55 144.35 431.27 C144.77 430.5 145.19 429.72 145.62 428.92 C146.11 428.01 146.6 427.09 147.1 426.15 C147.72 424.99 148.35 423.84 148.99 422.65 C150.72 419.43 152.43 416.2 154.14 412.96 C154.99 411.36 155.86 409.77 156.74 408.18 C160.4 401.33 162.8 394.33 165.01 386.91 C166.42 382.15 168.07 377.68 170.1 373.15 C172.58 366.35 172.86 359.6 171.65 352.5 C169.16 348.72 165.37 348.16 161.1 347.15 C157.68 346.75 154.3 346.73 150.86 346.74 C149.39 346.73 149.39 346.73 147.88 346.72 C144.66 346.7 141.44 346.71 138.23 346.71 C135.97 346.71 133.72 346.7 131.47 346.7 C126.76 346.69 122.05 346.69 117.34 346.7 C111.31 346.71 105.29 346.69 99.27 346.66 C94.62 346.64 89.97 346.65 85.33 346.65 C83.11 346.65 80.89 346.64 78.67 346.63 C75.56 346.62 72.45 346.63 69.34 346.65 C68.43 346.64 67.53 346.63 66.59 346.62 C60.46 346.69 55.38 347.89 50.1 351.15 C49.77 351.81 49.44 352.47 49.1 353.15 C48.44 353.15 47.78 353.15 47.1 353.15 C46.83 353.85 46.56 354.55 46.28 355.28 C41.25 367.51 34.68 379.06 26.1 389.15 C25.44 389.15 24.78 389.15 24.1 389.15 C23.99 389.99 23.99 389.99 23.87 390.85 C22.83 393.95 21.1 395.54 18.79 397.83 C18.01 398.62 17.23 399.41 16.42 400.22 C14.19 402.08 12.93 402.76 10.1 403.15 C10.1 403.81 10.1 404.47 10.1 405.15 C8.16 406.84 6.22 408.41 4.16 409.96 C3.57 410.41 2.97 410.87 2.35 411.33 C-2.2 414.74 -6.84 417.55 -11.9 420.15 C-12.86 420.7 -13.82 421.25 -14.81 421.82 C-22.97 426.46 -30.97 429.42 -39.9 432.15 C-41.49 432.69 -41.49 432.69 -43.1 433.25 C-46.34 434.29 -49.53 434.69 -52.9 435.15 C-53.23 435.48 -53.56 435.81 -53.9 436.15 C-75.07 442.55 -107.15 441.83 -128.32 435.84 C-130.66 435.21 -132.86 434.83 -135.27 434.58 C-138.78 434.16 -141.57 433.3 -144.9 432.15 C-145.81 431.86 -146.72 431.58 -147.65 431.29 C-187.52 418.65 -216.11 390.99 -235.65 354.92 C-240.33 345.88 -242.75 336.87 -245.14 327.03 C-245.82 324.46 -246.62 322.01 -247.52 319.52 C-248.96 315.44 -249.41 311.52 -249.69 307.21 C-249.78 305.09 -249.78 305.09 -250.9 303.15 C-251.05 301.74 -251.15 300.33 -251.22 298.92 C-251.26 298.06 -251.3 297.2 -251.34 296.32 C-251.4 294.93 -251.4 294.93 -251.46 293.52 C-251.5 292.57 -251.55 291.62 -251.59 290.64 C-252.07 278.99 -252.03 267.42 -251.46 255.77 C-251.42 254.94 -251.38 254.12 -251.34 253.26 C-251.02 247.39 -251.02 247.39 -249.9 245.15 C-249.63 242.96 -249.38 240.77 -249.15 238.58 C-248.35 231.83 -246.74 225.52 -244.66 219.05 C-243.3 214.75 -242.52 210.63 -241.9 206.15 C-240.91 204.8 -239.91 203.47 -238.9 202.15 C-238.09 199.87 -237.4 197.59 -236.74 195.27 C-235.9 193.15 -235.9 193.15 -234.31 191.62 C-232.44 190 -232.44 190 -232.9 186.15 C-231.91 186.15 -230.92 186.15 -229.9 186.15 C-229.24 183.51 -228.58 180.87 -227.9 178.15 C-227.24 178.15 -226.58 178.15 -225.9 178.15 C-225.82 177.57 -225.73 176.99 -225.65 176.4 C-224.69 173.53 -223.03 172.27 -220.9 170.15 C-220.65 169.38 -220.4 168.62 -220.15 167.83 C-218.51 164.3 -216.15 162.57 -213.19 160.1 C-208.1 155.75 -203.27 151 -199.15 145.71 C-196.73 142.95 -195.25 142.4 -191.9 141.15 C-190.69 139.94 -190.69 139.94 -189.46 138.71 C-186.75 136 -184.38 134.7 -180.9 133.15 C-179.56 132.48 -178.23 131.82 -176.9 131.15 C-139.61 112.91 -93.87 101.69 -52.75 114.3 C-50.48 114.97 -48.23 115.57 -45.92 116.12 C-45.22 116.29 -44.51 116.46 -43.79 116.64 C-42.41 116.97 -41.03 117.29 -39.64 117.61 C-35.17 118.7 -31.06 120.21 -26.9 122.15 C-26.13 122.5 -25.36 122.86 -24.57 123.23 C-22.03 124.42 -19.5 125.63 -16.96 126.83 C-16.09 127.25 -15.21 127.67 -14.31 128.09 C-12.17 129.11 -10.04 130.13 -7.9 131.15 C-7.9 131.81 -7.9 132.47 -7.9 133.15 C-7.17 133.41 -6.44 133.68 -5.69 133.95 C8.11 139.86 19.97 151.81 28.1 164.15 C28.7 164.73 29.31 165.3 29.93 165.9 C32.57 168.63 34.58 171.64 36.6 174.83 C37 175.46 37.4 176.08 37.81 176.72 C40.34 180.75 42.4 184.78 44.22 189.18 C46.31 193.83 48.73 197.27 53.04 200.02 C59.13 202.26 65.07 202.29 71.48 202.28 C72.41 202.28 73.33 202.28 74.29 202.28 C77.34 202.29 80.39 202.28 83.44 202.28 C85.57 202.28 87.69 202.28 89.82 202.28 C94.28 202.28 98.73 202.28 103.18 202.28 C108.88 202.27 114.58 202.28 120.29 202.28 C124.68 202.28 129.07 202.28 133.46 202.28 C135.56 202.28 137.66 202.28 139.76 202.28 C142.71 202.29 145.65 202.28 148.59 202.28 C149.45 202.28 150.31 202.28 151.2 202.28 C161.56 202.4 161.56 202.4 170.1 197.15 C173.01 192.44 172.59 187.51 172.1 182.15 C171.56 180.1 170.85 178.28 170 176.33 C168.91 173.7 168.19 171.02 167.41 168.27 C162.21 151.13 153.52 130.07 142.43 116.03 C141.1 114.15 141.1 114.15 141.1 111.15 C140.44 111.15 139.78 111.15 139.1 111.15 C137.91 109.6 137.91 109.6 136.54 107.4 C130.78 98.5 124.4 90.23 117.21 82.44 C115.32 80.38 113.48 78.28 111.66 76.15 C104.49 67.95 96.72 60.78 88.1 54.15 C86.22 52.69 84.35 51.24 82.48 49.77 C81.64 49.13 80.8 48.48 79.94 47.81 C79.33 47.26 78.72 46.71 78.1 46.15 C78.1 45.49 78.1 44.83 78.1 44.15 C77.55 44.05 77 43.96 76.43 43.87 C73.45 42.95 71.35 41.43 68.79 39.65 C58.39 32.58 47.72 26.24 36.39 20.76 C34.37 19.77 32.37 18.75 30.4 17.66 C22.45 13.34 14.1 10.69 5.46 8.04 C0.28 6.4 -3.94 5.06 -7.9 1.15 C-5.99 -0.77 -2.53 0.01 0 0 Z " fill="#FBFCFE" transform="translate(287.89991760253906,29.852828979492188)"/>
<path d="M0 0 C0.33 0.66 0.66 1.32 1 2 C1.58 1.84 2.16 1.68 2.76 1.51 C6.31 0.7 9.9 0.82 13.53 0.79 C14.81 0.78 14.81 0.78 16.13 0.76 C18.97 0.73 21.81 0.71 24.66 0.69 C25.63 0.68 26.6 0.68 27.61 0.67 C32.77 0.64 37.93 0.61 43.09 0.59 C47.35 0.58 51.61 0.54 55.86 0.49 C61.02 0.43 66.17 0.4 71.32 0.39 C73.28 0.38 75.23 0.36 77.19 0.34 C98.05 0.04 98.05 0.04 107 7 C113.64 14.7 116.16 21.11 116.06 31.31 C116.05 32.57 116.04 33.82 116.04 35.11 C116.02 36.54 116.02 36.54 116 38 C111.88 38.06 107.75 38.09 103.62 38.12 C102.45 38.14 101.27 38.16 100.06 38.18 C98.38 38.19 98.38 38.19 96.66 38.2 C95.63 38.21 94.59 38.22 93.52 38.23 C91 38 91 38 89 36 C88.51 31.54 88.51 31.54 88 27 C60.94 27 33.88 27 6 27 C6 36.57 6 46.14 6 56 C8.64 55.99 11.28 55.98 14 55.97 C22.72 55.94 31.44 55.91 40.16 55.9 C45.45 55.89 50.74 55.87 56.03 55.85 C61.13 55.83 66.23 55.82 71.33 55.81 C73.28 55.81 75.23 55.8 77.17 55.79 C79.9 55.77 82.63 55.77 85.35 55.77 C86.16 55.77 86.96 55.76 87.79 55.75 C96.07 55.78 102.64 59.08 108.74 64.57 C116.81 73.21 116.45 83.56 116.34 94.68 C116.31 97.13 116.32 99.58 116.32 102.03 C116.32 103.6 116.31 105.18 116.3 106.76 C116.3 107.48 116.3 108.2 116.3 108.95 C116.19 117.11 113.96 124.52 109 131 C99.01 140.03 87.35 138.99 74.71 138.86 C72.55 138.86 70.39 138.86 68.23 138.87 C63.73 138.87 59.22 138.84 54.72 138.8 C48.96 138.75 43.21 138.75 37.45 138.77 C33 138.78 28.55 138.77 24.1 138.75 C21.98 138.74 19.86 138.74 17.73 138.74 C14.76 138.75 11.8 138.72 8.83 138.68 C7.53 138.69 7.53 138.69 6.21 138.7 C-2.64 138.52 -9.8 134.2 -16 128 C-22.31 118.78 -22 112.52 -22 101 C-13.42 101 -4.84 101 4 101 C4.33 103.97 4.66 106.94 5 110 C8.09 111.55 11.36 111.18 14.75 111.21 C15.95 111.22 15.95 111.22 17.18 111.24 C19.83 111.27 22.48 111.29 25.13 111.32 C26.97 111.34 28.8 111.36 30.64 111.38 C35.48 111.43 40.31 111.48 45.15 111.53 C50.08 111.58 55.02 111.64 59.95 111.69 C69.63 111.8 79.32 111.9 89 112 C89 102.1 89 92.2 89 82 C86.34 82.01 83.68 82.02 80.94 82.03 C72.14 82.06 63.35 82.09 54.55 82.1 C49.22 82.11 43.89 82.13 38.55 82.15 C33.4 82.17 28.26 82.18 23.11 82.19 C21.15 82.19 19.18 82.2 17.22 82.21 C14.47 82.23 11.72 82.23 8.96 82.23 C8.16 82.23 7.35 82.24 6.52 82.25 C-1 82.22 -6.62 80.95 -12.25 75.69 C-13.08 74.93 -13.91 74.17 -14.77 73.39 C-19.07 68.79 -20.28 65.22 -21 59 C-21.33 58.67 -21.66 58.34 -22 58 C-22.25 53.64 -22.23 49.28 -22.24 44.91 C-22.25 42.73 -22.28 40.56 -22.31 38.38 C-22.39 28.24 -22.36 17.74 -15.75 9.5 C-11.82 5.52 -7.82 2.24 -2.06 1.75 C-1.04 1.87 -1.04 1.87 0 2 C0 1.34 0 0.68 0 0 Z M4 28 C4 36.91 4 45.82 4 55 C4.33 55 4.66 55 5 55 C5 46.09 5 37.18 5 28 C4.67 28 4.34 28 4 28 Z " fill="#FBFCFE" transform="translate(973,629)"/>
<path d="M0 0 C0.33 0.66 0.66 1.32 1 2 C1.58 1.84 2.16 1.68 2.76 1.51 C6.32 0.7 9.91 0.83 13.54 0.81 C14.4 0.8 15.26 0.79 16.15 0.78 C19 0.76 21.84 0.74 24.69 0.73 C25.67 0.72 26.64 0.72 27.65 0.71 C32.81 0.68 37.98 0.66 43.15 0.65 C47.41 0.64 51.68 0.61 55.94 0.57 C61.1 0.52 66.26 0.49 71.42 0.49 C73.37 0.48 75.33 0.46 77.29 0.44 C89.39 0.3 99.02 0.51 108.94 8.31 C116.12 17.67 116.12 26.49 116 38 C107.75 38 99.5 38 91 38 C90.01 34.37 89.02 30.74 88 27 C60.94 27 33.88 27 6 27 C6 36.57 6 46.14 6 56 C9.94 55.98 9.94 55.98 13.97 55.95 C22.66 55.9 31.36 55.87 40.06 55.84 C45.33 55.83 50.6 55.81 55.87 55.77 C60.96 55.74 66.05 55.72 71.14 55.72 C73.08 55.71 75.02 55.7 76.96 55.68 C79.68 55.66 82.41 55.66 85.13 55.66 C86.32 55.64 86.32 55.64 87.54 55.63 C95.21 55.67 100.88 58.31 107 63 C114.49 70.65 116.16 77.09 116.13 87.78 C116.13 88.51 116.13 89.24 116.14 89.99 C116.14 91.52 116.13 93.06 116.13 94.59 C116.13 96.93 116.13 99.26 116.14 101.59 C116.14 103.09 116.13 104.59 116.13 106.09 C116.13 106.78 116.14 107.47 116.14 108.18 C116.1 117.36 114.75 123.8 109 131 C99 140.05 87.34 138.98 74.67 138.82 C72.51 138.82 70.35 138.82 68.19 138.82 C63.68 138.82 59.17 138.79 54.66 138.75 C48.9 138.69 43.13 138.68 37.37 138.69 C32.91 138.69 28.46 138.68 24.01 138.65 C21.88 138.64 19.75 138.64 17.63 138.64 C14.66 138.63 11.69 138.6 8.71 138.57 C7.85 138.57 6.98 138.57 6.08 138.58 C0.07 138.46 -3.79 137.02 -9 134 C-9 133.34 -9 132.68 -9 132 C-9.72 131.84 -10.44 131.67 -11.19 131.5 C-15.28 129.32 -16.85 126 -19 122 C-19.58 121.15 -19.58 121.15 -20.17 120.29 C-21.5 116.63 -20.94 113.08 -20.62 109.25 C-20.42 106.53 -20.21 103.81 -20 101 C-12.08 101 -4.16 101 4 101 C4.33 103.97 4.66 106.94 5 110 C8.1 111.55 11.36 111.13 14.75 111.11 C15.55 111.11 16.35 111.11 17.18 111.11 C19.83 111.11 22.48 111.11 25.13 111.1 C26.97 111.1 28.8 111.09 30.64 111.09 C35.48 111.09 40.31 111.08 45.15 111.07 C50.08 111.06 55.02 111.05 59.95 111.05 C69.63 111.04 79.32 111.02 89 111 C89 101.76 89 92.52 89 83 C86.35 82.99 83.69 82.97 80.96 82.96 C72.17 82.91 63.39 82.84 54.6 82.76 C49.28 82.72 43.95 82.68 38.63 82.65 C33.49 82.63 28.34 82.59 23.2 82.54 C21.24 82.52 19.29 82.51 17.33 82.5 C14.58 82.49 11.83 82.46 9.08 82.43 C7.87 82.43 7.87 82.43 6.64 82.44 C-1.82 82.3 -8.08 79.61 -14.3 73.84 C-16.94 70.98 -19 67.98 -19 64 C-19.66 64 -20.32 64 -21 64 C-21.12 57.92 -21.21 51.83 -21.27 45.75 C-21.3 43.68 -21.33 41.62 -21.38 39.55 C-21.44 36.57 -21.47 33.59 -21.49 30.6 C-21.51 29.69 -21.54 28.78 -21.57 27.84 C-21.57 20.49 -19.56 13.91 -14.52 8.38 C-13 7.06 -13 7.06 -10 5 C-8.73 4.1 -8.73 4.1 -7.44 3.19 C-4.73 1.87 -2.97 1.75 0 2 C0 1.34 0 0.68 0 0 Z M4 28 C4 36.91 4 45.82 4 55 C4.33 55 4.66 55 5 55 C5 46.09 5 37.18 5 28 C4.67 28 4.34 28 4 28 Z " fill="#FBFCFE" transform="translate(1128,629)"/>
<path d="M0 0 C14.69 -0.07 29.38 -0.12 44.07 -0.16 C50.9 -0.17 57.72 -0.19 64.54 -0.23 C71.13 -0.26 77.71 -0.28 84.3 -0.28 C86.81 -0.29 89.32 -0.3 91.83 -0.32 C95.35 -0.34 98.88 -0.34 102.4 -0.34 C103.43 -0.35 104.46 -0.36 105.52 -0.37 C113.49 -0.34 122.23 0.51 128.31 6.19 C128.91 6.72 129.5 7.25 130.11 7.79 C136.44 15.2 137.73 20.64 137.56 30.38 C137.56 31.56 137.55 32.73 137.55 33.94 C137.54 36.41 137.52 38.88 137.49 41.35 C137.44 45.12 137.43 48.89 137.42 52.67 C137.41 55.07 137.39 57.48 137.37 59.88 C137.37 61.01 137.36 62.13 137.35 63.29 C137.27 68.56 137.14 73.08 135 78 C134.34 78 133.68 78 133 78 C132.66 79.18 132.66 79.18 132.31 80.38 C131 83 131 83 128.38 84.31 C127.59 84.54 126.81 84.77 126 85 C126 85.66 126 86.32 126 87 C119.46 90.65 113.36 90.3 106 90 C108.45 94.48 111.53 98.12 114.88 101.94 C115.91 103.13 116.95 104.33 117.99 105.53 C118.5 106.11 119.01 106.69 119.53 107.3 C124.14 112.64 128.56 118.13 133.01 123.61 C134.93 126 134.93 126 137 128 C137.41 130.16 137.41 130.16 137.62 132.62 C137.74 133.85 137.74 133.85 137.85 135.1 C137.9 135.73 137.95 136.35 138 137 C133.44 137.17 128.88 137.28 124.31 137.38 C123.02 137.43 121.73 137.48 120.39 137.53 C111.03 137.67 111.03 137.67 108.13 135.78 C106.86 134.23 106.86 134.23 105 131 C103.67 129.66 102.34 128.33 101 127 C99.58 125.33 98.19 123.64 96.81 121.94 C96.02 120.97 95.24 120 94.43 119 C92.86 117.06 91.29 115.13 89.73 113.19 C84.67 106.95 79.48 100.87 74 95 C73.49 94.3 72.98 93.61 72.46 92.89 C68.72 90.02 65.26 90.48 60.68 90.57 C59.77 90.58 58.87 90.58 57.94 90.58 C56.04 90.59 54.14 90.61 52.24 90.64 C49.31 90.69 46.39 90.7 43.47 90.72 C41.62 90.73 39.77 90.75 37.93 90.76 C37.05 90.77 36.17 90.78 35.26 90.78 C31.31 90.46 31.31 90.46 28 92 C27.88 93.41 27.82 94.83 27.79 96.24 C27.77 97.15 27.75 98.05 27.73 98.97 C27.72 99.95 27.7 100.93 27.68 101.94 C27.66 102.94 27.64 103.94 27.62 104.96 C27.56 108.16 27.5 111.36 27.44 114.56 C27.39 116.73 27.35 118.89 27.31 121.05 C27.2 126.37 27.1 131.68 27 137 C18.42 137 9.84 137 1 137 C-0.03 133.91 -0.12 131.79 -0.12 128.55 C-0.12 127.42 -0.12 126.29 -0.12 125.12 C-0.12 123.26 -0.12 123.26 -0.11 121.36 C-0.11 120.05 -0.11 118.74 -0.11 117.4 C-0.11 113.81 -0.11 110.22 -0.1 106.64 C-0.1 102.89 -0.09 99.14 -0.09 95.39 C-0.09 88.3 -0.08 81.2 -0.07 74.1 C-0.06 66.02 -0.06 57.94 -0.05 49.86 C-0.04 33.24 -0.02 16.62 0 0 Z M29 25 C29 25.33 29 25.66 29 26 C55.73 26 82.46 26 110 26 C110 25.67 110 25.34 110 25 C83.27 25 56.54 25 29 25 Z M27 27 C27 38.88 27 50.76 27 63 C54.72 63 82.44 63 111 63 C111 51.12 111 39.24 111 27 C100.2 26.85 89.39 26.7 78.59 26.56 C73.57 26.49 68.55 26.42 63.54 26.35 C58.7 26.28 53.86 26.22 49.03 26.16 C47.18 26.13 45.33 26.11 43.48 26.08 C40.9 26.04 38.31 26.01 35.73 25.98 C34.96 25.97 34.19 25.95 33.39 25.94 C29.91 25.58 29.91 25.58 27 27 Z M28 64 C28 64.33 28 64.66 28 65 C55.39 65 82.78 65 111 65 C111 64.67 111 64.34 111 64 C83.61 64 56.22 64 28 64 Z " fill="#FAFBFD" transform="translate(334,630)"/>
<path d="M0 0 C0.33 0.66 0.66 1.32 1 2 C1.58 1.84 2.17 1.68 2.77 1.51 C6.27 0.71 9.8 0.84 13.37 0.84 C14.22 0.83 15.06 0.83 15.93 0.82 C18.71 0.81 21.5 0.8 24.29 0.8 C26.23 0.79 28.18 0.79 30.12 0.78 C34.2 0.77 38.27 0.76 42.35 0.76 C47.56 0.75 52.76 0.73 57.96 0.7 C61.98 0.68 66 0.68 70.01 0.68 C71.93 0.67 73.85 0.67 75.77 0.65 C95.03 0.53 95.03 0.53 103 4 C103 4.66 103 5.32 103 6 C103.6 6.26 104.19 6.52 104.8 6.79 C107.14 8.08 108.42 9.34 110.12 11.38 C110.62 11.96 111.12 12.55 111.63 13.15 C116.86 20.23 116.14 28.64 116.11 37.08 C116.11 38.17 116.11 39.26 116.11 40.39 C116.11 43.99 116.11 47.59 116.1 51.18 C116.1 53.68 116.09 56.19 116.09 58.69 C116.09 64.59 116.08 70.49 116.07 76.39 C116.06 83.77 116.05 91.15 116.05 98.53 C116.04 111.69 116.02 124.84 116 138 C107.42 138 98.84 138 90 138 C89.07 135.22 88.88 133.58 88.89 130.71 C88.89 129.42 88.89 129.42 88.89 128.1 C88.89 127.18 88.9 126.25 88.9 125.3 C88.9 124.35 88.91 123.4 88.91 122.42 C88.91 119.39 88.92 116.35 88.94 113.31 C88.94 111.25 88.95 109.2 88.95 107.14 C88.96 102.09 88.98 97.05 89 92 C78.2 92.11 67.39 92.22 56.59 92.34 C51.57 92.39 46.55 92.45 41.54 92.5 C36.7 92.54 31.86 92.6 27.03 92.65 C25.18 92.67 23.33 92.69 21.48 92.71 C18.9 92.73 16.31 92.76 13.73 92.79 C12.96 92.8 12.19 92.81 11.39 92.81 C7.9 92.55 7.9 92.55 5 94 C4.91 95.38 4.88 96.77 4.89 98.15 C4.89 99.47 4.89 99.47 4.89 100.82 C4.89 101.78 4.9 102.74 4.9 103.72 C4.9 105.19 4.9 105.19 4.91 106.68 C4.91 109.81 4.92 112.93 4.94 116.06 C4.94 118.18 4.95 120.29 4.95 122.41 C4.96 127.61 4.98 132.8 5 138 C-3.58 138 -12.16 138 -21 138 C-21.94 135.17 -22.13 133.42 -22.14 130.49 C-22.15 129.57 -22.15 128.65 -22.16 127.69 C-22.16 126.68 -22.16 125.67 -22.16 124.63 C-22.17 123.56 -22.17 122.49 -22.18 121.4 C-22.19 117.86 -22.2 114.32 -22.2 110.78 C-22.21 108.32 -22.21 105.86 -22.22 103.4 C-22.23 98.23 -22.24 93.06 -22.24 87.9 C-22.25 81.29 -22.27 74.69 -22.3 68.08 C-22.32 63 -22.32 57.91 -22.32 52.82 C-22.33 50.39 -22.33 47.96 -22.35 45.52 C-22.36 42.11 -22.36 38.69 -22.36 35.28 C-22.37 34.28 -22.37 33.28 -22.38 32.26 C-22.34 24.08 -21.31 15.57 -15.5 9.38 C-14.91 8.72 -14.32 8.07 -13.72 7.4 C-12 6 -12 6 -9 6 C-9 5.34 -9 4.68 -9 4 C-5.87 2.14 -3.63 1.8 0 2 C0 1.34 0 0.68 0 0 Z M4 28 C4 40.21 4 52.42 4 65 C32.05 65 60.1 65 89 65 C89 52.46 89 39.92 89 27 C87.26 25.26 85.01 25.87 82.69 25.85 C81.55 25.85 81.55 25.85 80.39 25.85 C79.59 25.85 78.8 25.85 77.98 25.84 C75.33 25.84 72.68 25.83 70.04 25.83 C68.2 25.83 66.37 25.83 64.54 25.82 C60.69 25.82 56.85 25.81 53 25.81 C48.06 25.81 43.12 25.8 38.19 25.78 C34.4 25.77 30.62 25.77 26.83 25.77 C25.01 25.77 23.19 25.77 21.37 25.76 C18.82 25.75 16.28 25.75 13.74 25.76 C12.98 25.75 12.22 25.75 11.44 25.74 C7.26 25.63 7.26 25.63 4 28 Z " fill="#FBFCFE" transform="translate(818,629)"/>
<path d="M0 0 C0.99 0 1.98 0 3 0 C3 0.66 3 1.32 3 2 C3.99 1.67 4.98 1.34 6 1 C8.79 0.89 11.56 0.83 14.35 0.82 C15.2 0.82 16.06 0.81 16.93 0.8 C19.76 0.78 22.59 0.77 25.41 0.76 C26.38 0.76 27.34 0.75 28.34 0.75 C33.46 0.73 38.58 0.71 43.7 0.7 C48.98 0.69 54.25 0.66 59.52 0.62 C63.59 0.59 67.66 0.59 71.72 0.58 C73.67 0.58 75.61 0.57 77.55 0.55 C100.23 0.34 100.23 0.34 108.94 8.44 C113.61 13.58 116.11 18.16 116.14 25.15 C116.15 25.97 116.15 26.79 116.16 27.64 C116.16 28.98 116.16 28.98 116.16 30.34 C116.17 31.28 116.17 32.23 116.18 33.2 C116.19 36.33 116.2 39.46 116.2 42.58 C116.21 44.76 116.21 46.93 116.22 49.11 C116.23 53.67 116.24 58.23 116.24 62.79 C116.25 68.62 116.27 74.46 116.3 80.3 C116.32 84.79 116.32 89.28 116.32 93.78 C116.33 95.93 116.33 98.08 116.35 100.23 C116.36 103.25 116.36 106.26 116.36 109.27 C116.37 110.16 116.37 111.04 116.38 111.95 C116.34 119.04 114.76 124.47 110 129.94 C109.5 130.52 109.01 131.11 108.5 131.71 C107 133 107 133 104 133 C104 133.66 104 134.32 104 135 C103.2 135.31 102.39 135.62 101.56 135.94 C99.11 136.76 99.11 136.76 98 138 C95 138.12 92.02 138.17 89.02 138.18 C88.07 138.18 87.13 138.19 86.16 138.2 C83.02 138.22 79.88 138.23 76.75 138.24 C75.68 138.24 74.61 138.25 73.5 138.25 C67.83 138.27 62.16 138.29 56.49 138.3 C50.64 138.31 44.79 138.34 38.94 138.38 C34.44 138.41 29.94 138.41 25.43 138.42 C23.28 138.42 21.12 138.43 18.96 138.45 C15.94 138.48 12.91 138.48 9.89 138.47 C8.56 138.49 8.56 138.49 7.2 138.51 C-1.5 138.44 -7.93 134.9 -14.24 129.02 C-24.01 117.8 -21.18 97.62 -21.24 83.61 C-21.24 82.76 -21.25 81.91 -21.25 81.04 C-21.27 76.58 -21.29 72.12 -21.3 67.67 C-21.31 63.09 -21.34 58.52 -21.38 53.95 C-21.41 50.39 -21.41 46.84 -21.42 43.29 C-21.42 41.6 -21.43 39.92 -21.45 38.23 C-21.56 27.97 -21.3 19.09 -15.18 10.41 C-10.53 5.95 -6.09 3.14 0 1 C0 0.67 0 0.34 0 0 Z M8 26 C8 26.33 8 26.66 8 27 C34.73 27 61.46 27 89 27 C89 26.67 89 26.34 89 26 C62.27 26 35.54 26 8 26 Z M6 28 C5.9 30.58 5.86 33.14 5.87 35.72 C5.87 36.52 5.87 37.33 5.87 38.17 C5.86 40.85 5.86 43.53 5.87 46.22 C5.87 48.08 5.87 49.93 5.86 51.79 C5.86 55.69 5.86 59.58 5.87 63.48 C5.88 68.49 5.87 73.5 5.87 78.5 C5.86 82.34 5.86 86.18 5.87 90.01 C5.87 91.86 5.87 93.71 5.86 95.55 C5.86 98.13 5.87 100.71 5.87 103.28 C5.87 104.05 5.87 104.83 5.86 105.62 C5.56 109.1 5.56 109.1 7 112 C9.59 112.1 12.15 112.13 14.73 112.11 C15.97 112.11 15.97 112.11 17.23 112.11 C19.9 112.11 22.58 112.11 25.25 112.1 C26.9 112.1 28.55 112.1 30.2 112.09 C36.32 112.09 42.44 112.08 48.56 112.06 C69.07 112.03 69.07 112.03 90 112 C90 84.28 90 56.56 90 28 C76.33 27.81 62.65 27.63 48.56 27.44 C44.24 27.38 39.91 27.31 35.46 27.25 C31.6 27.2 31.6 27.2 27.73 27.15 C26.01 27.13 24.28 27.11 22.56 27.08 C19.95 27.04 17.34 27.01 14.73 26.98 C13.96 26.97 13.18 26.95 12.39 26.94 C8.9 26.58 8.9 26.58 6 28 Z " fill="#FAFBFD" transform="translate(510,629)"/>
<path d="M0 0 C1.03 -0 2.07 -0.01 3.14 -0.01 C4.85 -0.01 4.85 -0.01 6.61 -0 C8.4 -0.01 8.4 -0.01 10.24 -0.01 C13.53 -0.01 16.83 -0.01 20.12 -0.01 C23.56 -0 27.01 -0.01 30.45 -0.01 C36.23 -0.01 42.01 -0.01 47.79 -0 C54.48 0 61.17 0 67.86 -0.01 C73.6 -0.01 79.34 -0.01 85.07 -0.01 C88.5 -0.01 91.93 -0.01 95.36 -0.01 C99.18 -0.01 103.01 -0.01 106.83 -0 C108.55 -0.01 108.55 -0.01 110.3 -0.01 C111.33 -0.01 112.37 -0 113.43 0 C114.79 0 114.79 0 116.18 0 C118.22 0.13 118.22 0.13 119.22 1.13 C119.22 9.05 119.22 16.97 119.22 25.13 C70.21 25.62 70.21 25.62 20.22 26.13 C20.22 35.7 20.22 45.27 20.22 55.13 C23.75 55.12 23.75 55.12 27.35 55.11 C35.1 55.09 42.86 55.08 50.62 55.08 C55.33 55.07 60.03 55.06 64.74 55.05 C69.28 55.04 73.82 55.03 78.36 55.03 C80.09 55.03 81.83 55.03 83.56 55.02 C85.98 55.01 88.41 55.01 90.83 55.01 C91.91 55.01 91.91 55.01 93.02 55 C97.99 55.01 97.99 55.01 100.22 56.13 C100.22 64.38 100.22 72.63 100.22 81.13 C73.82 81.46 47.42 81.79 20.22 82.13 C20.22 91.7 20.22 101.27 20.22 111.13 C24.61 111.12 24.61 111.12 29.09 111.11 C38.74 111.09 48.4 111.08 58.05 111.08 C63.91 111.07 69.77 111.06 75.62 111.05 C81.27 111.04 86.92 111.03 92.57 111.03 C94.72 111.03 96.88 111.03 99.04 111.02 C102.06 111.01 105.07 111.01 108.09 111.01 C108.99 111.01 109.89 111.01 110.81 111 C116.99 111.01 116.99 111.01 119.22 112.13 C119.22 120.38 119.22 128.63 119.22 137.13 C77.97 137.13 36.72 137.13 -5.78 137.13 C-5.82 103.06 -5.82 103.06 -5.83 88.83 C-5.84 78.99 -5.84 69.15 -5.86 59.31 C-5.87 52.14 -5.87 44.98 -5.88 37.81 C-5.88 34.01 -5.88 30.22 -5.89 26.42 C-5.9 22.85 -5.9 19.28 -5.9 15.71 C-5.9 13.77 -5.9 11.82 -5.91 9.88 C-5.91 8.74 -5.9 7.59 -5.9 6.41 C-5.9 5.41 -5.91 4.41 -5.91 3.37 C-5.68 -0.75 -3.63 0 0 0 Z M18.22 27.13 C18.22 36.04 18.22 44.95 18.22 54.13 C18.55 54.13 18.88 54.13 19.22 54.13 C19.22 45.22 19.22 36.31 19.22 27.13 C18.89 27.13 18.56 27.13 18.22 27.13 Z M18.22 83.13 C18.22 92.04 18.22 100.95 18.22 110.13 C18.55 110.13 18.88 110.13 19.22 110.13 C19.22 101.22 19.22 92.31 19.22 83.13 C18.89 83.13 18.56 83.13 18.22 83.13 Z " fill="#FAFBFD" transform="translate(41.7830810546875,629.8730163574219)"/>
<path d="M0 0 C14.71 -0.07 29.42 -0.12 44.12 -0.16 C50.96 -0.17 57.78 -0.19 64.61 -0.23 C71.21 -0.26 77.8 -0.28 84.4 -0.28 C86.91 -0.29 89.42 -0.3 91.94 -0.32 C95.46 -0.34 98.99 -0.34 102.51 -0.34 C103.55 -0.35 104.58 -0.36 105.65 -0.37 C115.17 -0.33 123.7 1.67 130.63 8.64 C135 13.49 137.23 17.62 137.29 24.29 C137.3 25.32 137.32 26.35 137.33 27.42 C137.33 28.52 137.33 29.63 137.34 30.77 C137.35 32.49 137.35 32.49 137.36 34.24 C137.37 36.67 137.37 39.1 137.37 41.53 C137.37 45.22 137.41 48.92 137.45 52.61 C137.46 54.98 137.46 57.34 137.46 59.7 C137.48 60.8 137.49 61.9 137.5 63.03 C137.46 70.85 136.28 77.43 130.85 83.34 C130.12 83.87 129.38 84.39 128.62 84.94 C127.9 85.48 127.17 86.03 126.41 86.59 C120.75 89.9 115.55 90.3 109.16 90.3 C108.3 90.31 107.43 90.32 106.54 90.33 C103.68 90.35 100.83 90.37 97.98 90.38 C96 90.4 94.01 90.41 92.03 90.43 C86.81 90.48 81.6 90.51 76.39 90.54 C68.03 90.59 59.67 90.66 51.31 90.73 C48.38 90.75 45.45 90.77 42.53 90.79 C40.75 90.8 38.97 90.81 37.19 90.83 C36.37 90.83 35.55 90.83 34.71 90.83 C31.05 90.52 31.05 90.52 28 92 C27.88 93.41 27.82 94.83 27.79 96.24 C27.77 97.15 27.75 98.05 27.73 98.97 C27.72 99.95 27.7 100.93 27.68 101.94 C27.66 102.94 27.64 103.94 27.62 104.96 C27.56 108.16 27.5 111.36 27.44 114.56 C27.39 116.73 27.35 118.89 27.31 121.05 C27.2 126.37 27.1 131.68 27 137 C18.42 137 9.84 137 1 137 C-0.03 133.91 -0.12 131.79 -0.12 128.55 C-0.12 127.42 -0.12 126.29 -0.12 125.12 C-0.12 123.26 -0.12 123.26 -0.11 121.36 C-0.11 120.05 -0.11 118.74 -0.11 117.4 C-0.11 113.81 -0.11 110.22 -0.1 106.64 C-0.1 102.89 -0.09 99.14 -0.09 95.39 C-0.09 88.3 -0.08 81.2 -0.07 74.1 C-0.06 66.02 -0.06 57.94 -0.05 49.86 C-0.04 33.24 -0.02 16.62 0 0 Z M29 25 C29 25.33 29 25.66 29 26 C55.73 26 82.46 26 110 26 C110 25.67 110 25.34 110 25 C83.27 25 56.54 25 29 25 Z M27 27 C27 38.88 27 50.76 27 63 C54.39 63 81.78 63 110 63 C110 51.12 110 39.24 110 27 C95.45 26.79 95.45 26.79 80.9 26.6 C74.97 26.52 69.04 26.44 63.11 26.35 C58.33 26.28 53.55 26.22 48.77 26.16 C46.95 26.13 45.12 26.11 43.29 26.08 C40.74 26.04 38.19 26.01 35.64 25.98 C34.5 25.96 34.5 25.96 33.33 25.94 C29.88 25.58 29.88 25.58 27 27 Z M111 27 C111 39.21 111 51.42 111 64 C111.33 64 111.66 64 112 64 C112 51.79 112 39.58 112 27 C111.67 27 111.34 27 111 27 Z M28 64 C28 64.33 28 64.66 28 65 C55.39 65 82.78 65 111 65 C111 64.67 111 64.34 111 64 C83.61 64 56.22 64 28 64 Z " fill="#FAFBFD" transform="translate(646,630)"/>
<path d="M0 0 C8.58 0 17.16 0 26 0 C26 36.3 26 72.6 26 110 C53.72 110.33 81.44 110.66 110 111 C110 74.37 110 37.74 110 0 C118.58 0 127.16 0 136 0 C137.59 1.59 137.14 3.25 137.15 5.46 C137.16 6.9 137.16 6.9 137.17 8.37 C137.17 9.44 137.17 10.51 137.18 11.6 C137.18 12.72 137.19 13.83 137.2 14.98 C137.22 18.7 137.23 22.41 137.24 26.12 C137.24 27.39 137.25 28.65 137.25 29.96 C137.27 35.98 137.28 41.99 137.29 48.01 C137.3 54.94 137.33 61.87 137.37 68.8 C137.4 74.81 137.41 80.83 137.42 86.84 C137.42 89.39 137.43 91.94 137.45 94.49 C137.48 98.07 137.48 101.65 137.47 105.23 C137.49 106.8 137.49 106.8 137.51 108.41 C137.45 116.47 135.79 123.3 130.88 129.81 C119.77 138.26 109.38 137.74 95.9 137.66 C93.74 137.67 91.58 137.67 89.42 137.68 C84.9 137.69 80.39 137.68 75.87 137.65 C70.1 137.62 64.33 137.64 58.55 137.67 C54.1 137.69 49.64 137.68 45.18 137.67 C43.05 137.67 40.92 137.67 38.8 137.68 C35.82 137.69 32.84 137.67 29.86 137.65 C28.56 137.66 28.56 137.66 27.23 137.68 C19.66 137.55 14.14 134.75 8.48 129.79 C7.87 129.07 7.25 128.36 6.62 127.62 C6 126.92 5.37 126.21 4.73 125.48 C-0.1 118.56 -0.42 112.79 -0.34 104.56 C-0.34 103.42 -0.34 102.29 -0.34 101.13 C-0.34 97.4 -0.32 93.67 -0.29 89.94 C-0.29 87.35 -0.28 84.76 -0.28 82.17 C-0.27 76.06 -0.25 69.94 -0.22 63.83 C-0.18 56.87 -0.17 49.91 -0.15 42.94 C-0.12 28.63 -0.06 14.31 0 0 Z " fill="#FBFCFE" transform="translate(178,630)"/>
<path d="M0 0 C0.66 0.33 1.32 0.66 2 1 C2.63 3.07 2.63 3.07 3.12 5.56 C3.29 6.39 3.46 7.22 3.63 8.07 C3.75 8.7 3.88 9.34 4 10 C4.84 10.06 5.69 10.12 6.55 10.18 C8.2 10.31 8.2 10.31 9.88 10.44 C11.51 10.56 11.51 10.56 13.18 10.68 C16 11 16 11 18 12 C17 15 17 15 13.5 16.88 C10.52 18.46 10.52 18.46 8.94 21.44 C9.01 24.36 9.87 26.32 11 29 C10.67 29.99 10.34 30.98 10 32 C9.22 31.42 9.22 31.42 8.43 30.84 C4.3 27.76 4.3 27.76 -0.56 27.38 C-3.77 29.51 -6.91 31.7 -10 34 C-9.04 27.14 -9.04 27.14 -8.12 23.88 C-7.67 20.78 -7.67 20.78 -10.25 18.25 C-12.97 15.95 -12.97 15.95 -16 14 C-15.67 13.01 -15.34 12.02 -15 11 C-9.55 10.5 -9.55 10.5 -4 10 C-2.68 6.7 -1.36 3.4 0 0 Z " fill="#0E0F10" transform="translate(80,353)"/>
<path d="M0 0 C0.99 0 1.98 0 3 0 C3.12 0.57 3.24 1.13 3.37 1.71 C3.53 2.45 3.7 3.18 3.88 3.94 C4.12 5.03 4.12 5.03 4.37 6.15 C4.83 8.21 4.83 8.21 7 9 C9.2 9.39 11.41 9.74 13.62 10.06 C14.81 10.24 16 10.42 17.23 10.6 C18.14 10.73 19.06 10.86 20 11 C17.82 13.27 16.11 14.94 13.31 16.44 C10.82 17.81 10.82 17.81 10.06 20.38 C9.99 23.41 10.77 25.25 12 28 C12 28.99 12 29.98 12 31 C9.26 30.01 7.24 29.22 5.06 27.25 C2.95 25.65 2.95 25.65 -0.06 26.62 C-2.7 27.86 -4.18 28.78 -6 31 C-6.99 30.67 -7.98 30.34 -9 30 C-8.87 29.26 -8.74 28.53 -8.61 27.77 C-7.54 21.42 -7.54 21.42 -10.31 15.88 C-12.82 14.03 -12.82 14.03 -15 13 C-14.67 12.01 -14.34 11.02 -14 10 C-8.56 9.5 -8.56 9.5 -3 9 C-2.01 6.03 -1.02 3.06 0 0 Z " fill="#0E0F10" transform="translate(313,291)"/>
<path d="M0 0 C3.88 2.58 3.81 4.63 5 9 C7.79 10.4 10.54 10.61 13.62 11.06 C14.81 11.24 16 11.42 17.23 11.6 C18.14 11.73 19.06 11.86 20 12 C17.43 14.09 14.93 16.04 12.12 17.81 C11.42 18.53 10.72 19.26 10 20 C10.08 24.4 11.19 28.02 13 32 C9.39 32 8.59 31.18 5.81 29 C5.1 28.44 4.38 27.89 3.64 27.31 C3.1 26.88 2.56 26.45 2 26 C-1.76 28.21 -5.39 30.56 -9 33 C-9.08 29.6 -8.95 26.77 -8.19 23.44 C-7.61 19.85 -7.61 19.85 -10.25 17.19 C-12.98 14.95 -12.98 14.95 -16 13 C-16 12.34 -16 11.68 -16 11 C-11.71 11 -7.42 11 -3 11 C-2.01 7.37 -1.02 3.74 0 0 Z " fill="#0E0F10" transform="translate(188,416)"/>
<path d="M0 0 C0.66 0.33 1.32 0.66 2 1 C2.63 3.07 2.63 3.07 3.12 5.56 C3.29 6.39 3.46 7.22 3.63 8.07 C3.75 8.7 3.88 9.34 4 10 C7.14 10.6 10.04 11 13.25 11 C16 11 16 11 18 12 C16.66 16.03 14.58 16.88 11 19 C10.34 19 9.68 19 9 19 C9.54 24.28 10.77 28.26 13 33 C9.93 31.95 7.97 30.97 5.5 28.81 C3.2 26.8 3.2 26.8 0.69 26.88 C-3.37 28.57 -6.6 31.24 -10 34 C-9.33 29.33 -8.67 24.67 -8 20 C-10.64 18.02 -13.28 16.04 -16 14 C-15.67 13.01 -15.34 12.02 -15 11 C-11.04 11 -7.08 11 -3 11 C-2.69 9.56 -2.38 8.11 -2.06 6.62 C-1.55 4.21 -1.11 2.21 0 0 Z " fill="#0E0F10" transform="translate(251,399)"/>
<path d="M0 0 C0.66 0.33 1.32 0.66 2 1 C2.63 3.07 2.63 3.07 3.12 5.56 C3.29 6.39 3.46 7.22 3.63 8.07 C3.75 8.7 3.88 9.34 4 10 C8.32 10.74 12.66 11.39 17 12 C15.89 14.92 15.19 15.89 12.44 17.5 C9.9 18.73 9.9 18.73 9.29 20.8 C8.95 23.37 9.31 25.23 9.94 27.75 C10.13 28.55 10.33 29.35 10.53 30.17 C10.68 30.78 10.84 31.38 11 32 C8.26 31.01 6.21 30.18 4 28.25 C3.34 27.84 2.68 27.43 2 27 C-0.9 27.73 -2.76 28.81 -5.12 30.62 C-7 32 -7 32 -10 32 C-9.87 31.19 -9.74 30.38 -9.61 29.55 C-8.52 22.77 -8.52 22.77 -11.31 16.81 C-13.83 15.03 -13.83 15.03 -16 14 C-15.67 13.01 -15.34 12.02 -15 11 C-9.55 10.5 -9.55 10.5 -4 10 C-2.68 6.7 -1.36 3.4 0 0 Z " fill="#0E0F10" transform="translate(126,399)"/>
<path d="M0 0 C0.66 0.33 1.32 0.66 2 1 C2.63 3.07 2.63 3.07 3.12 5.56 C3.29 6.39 3.46 7.22 3.63 8.07 C3.75 8.7 3.88 9.34 4 10 C4.84 10.06 5.69 10.12 6.55 10.18 C8.2 10.31 8.2 10.31 9.88 10.44 C11.51 10.56 11.51 10.56 13.18 10.68 C16 11 16 11 18 12 C16.66 16.03 14.58 16.88 11 19 C10.34 19 9.68 19 9 19 C9.61 23.34 10.26 27.68 11 32 C9.31 30.99 7.61 29.98 5.92 28.97 C3.82 27.91 2.36 27.18 0 27 C-2.45 28.41 -2.45 28.41 -4.75 30.44 C-5.55 31.1 -6.35 31.75 -7.17 32.43 C-8.08 33.21 -8.08 33.21 -9 34 C-10.12 30.3 -10.12 30.3 -9 27.62 C-7.68 24.16 -7.76 22.5 -9 19 C-11.16 17.03 -13.48 15.48 -16 14 C-15.67 13.01 -15.34 12.02 -15 11 C-11.04 11 -7.08 11 -3 11 C-2.69 9.56 -2.38 8.11 -2.06 6.62 C-1.55 4.21 -1.11 2.21 0 0 Z " fill="#0E0F10" transform="translate(297,353)"/>
<path d="M0 0 C2 1 2 1 2.78 2.81 C3.26 4.27 3.74 5.73 4.22 7.19 C4.85 9.2 4.85 9.2 7 10 C9.04 10.39 11.08 10.74 13.12 11.06 C14.22 11.24 15.32 11.42 16.45 11.6 C17.29 11.73 18.13 11.86 19 12 C18.28 12.56 17.56 13.11 16.81 13.69 C14.03 15.98 11.51 18.41 9 21 C9.22 21.61 9.43 22.23 9.66 22.86 C9.93 23.67 10.21 24.48 10.5 25.31 C10.78 26.11 11.06 26.91 11.34 27.74 C12 30 12 30 12 33 C11.37 32.58 10.75 32.16 10.1 31.72 C9.28 31.17 8.47 30.63 7.62 30.06 C6.81 29.52 6 28.97 5.16 28.41 C3.07 26.99 3.07 26.99 1 26 C0.11 26.62 -0.77 27.24 -1.69 27.88 C-4.46 29.65 -6.91 30.91 -10 32 C-9.49 28.92 -8.98 25.95 -8.12 22.94 C-7.66 19.79 -7.66 19.79 -10.25 17.25 C-12.97 14.95 -12.97 14.95 -16 13 C-16 12.34 -16 11.68 -16 11 C-10.06 10.5 -10.06 10.5 -4 10 C-2.68 6.7 -1.36 3.4 0 0 Z " fill="#0E0F10" transform="translate(297,228)"/>
<path d="M0 0 C2 1 2 1 2.78 3.03 C3.26 4.68 3.74 6.32 4.22 7.97 C4.81 10.19 4.81 10.19 7 11 C9.04 11.39 11.08 11.74 13.12 12.06 C14.22 12.24 15.32 12.42 16.45 12.6 C17.29 12.73 18.13 12.86 19 13 C18.28 13.56 17.56 14.11 16.81 14.69 C14.03 16.98 11.51 19.41 9 22 C9.22 22.61 9.43 23.23 9.66 23.86 C9.93 24.67 10.21 25.48 10.5 26.31 C10.78 27.11 11.06 27.91 11.34 28.74 C12 31 12 31 12 34 C11.46 33.58 10.91 33.16 10.36 32.72 C9.64 32.17 8.92 31.63 8.19 31.06 C7.48 30.52 6.77 29.97 6.04 29.41 C3.96 27.83 3.96 27.83 1 27 C-1.36 28.43 -1.36 28.43 -3.69 30.44 C-4.5 31.1 -5.3 31.75 -6.14 32.43 C-6.75 32.95 -7.37 33.47 -8 34 C-8.66 33.01 -9.32 32.02 -10 31 C-9.33 29 -8.67 27 -8 25 C-7.75 21.9 -7.75 21.9 -9 19 C-10.75 17.48 -12.52 16.27 -14.5 15.08 C-15 14.72 -15.49 14.37 -16 14 C-16 13.34 -16 12.68 -16 12 C-10.06 11.5 -10.06 11.5 -4 11 C-3.53 9.56 -3.05 8.11 -2.56 6.62 C-1.81 4.32 -1.08 2.17 0 0 Z " fill="#0E0F10" transform="translate(251,181)"/>
<path d="M0 0 C3.14 3.14 3.67 4.91 5 9 C7.28 10.14 8.97 10.27 11.5 10.5 C15.78 10.89 15.78 10.89 18 12 C17 15 17 15 14 16.88 C10.92 18.69 10.92 18.69 9.94 21.25 C10.03 25.19 11.43 28.42 13 32 C12.01 32.5 12.01 32.5 11 33 C11 32.34 11 31.68 11 31 C10.28 30.73 9.56 30.46 8.81 30.19 C6.02 29.01 3.56 27.61 1 26 C-1.97 28.31 -4.94 30.62 -8 33 C-9.09 29.73 -8.83 28.44 -8.25 25.12 C-7.72 20.71 -7.72 20.71 -10.31 16.94 C-12.81 15.03 -12.81 15.03 -15 14 C-14.67 13.01 -14.34 12.02 -14 11 C-8.56 10.5 -8.56 10.5 -3 10 C-2.01 6.7 -1.02 3.4 0 0 Z " fill="#0E0F10" transform="translate(188,165)"/>
<path d="M0 0 C0.99 0 1.98 0 3 0 C3.66 2.97 4.32 5.94 5 9 C6.16 9.09 6.16 9.09 7.34 9.18 C8.34 9.27 9.34 9.35 10.38 9.44 C11.87 9.56 11.87 9.56 13.4 9.68 C16 10 16 10 18 11 C18 11.66 18 12.32 18 13 C16.28 14.32 14.47 15.43 12.63 16.59 C10.59 18.36 10.27 19.33 10 22 C10.3 24.38 10.3 24.38 10.94 26.75 C11.13 27.55 11.33 28.35 11.53 29.17 C11.68 29.78 11.84 30.38 12 31 C9.46 29.54 9.46 29.54 6.92 28.07 C4.98 26.99 2.99 25.99 1 25 C-1.64 26.98 -4.28 28.96 -7 31 C-7.66 30.67 -8.32 30.34 -9 30 C-8.87 29.26 -8.74 28.53 -8.61 27.77 C-7.54 21.46 -7.54 21.46 -10.25 15.94 C-12.15 14.6 -14.07 13.29 -16 12 C-16 11.34 -16 10.68 -16 10 C-9.56 9.5 -9.56 9.5 -3 9 C-2.01 6.03 -1.02 3.06 0 0 Z " fill="#0E0F10" transform="translate(125,183)"/>
<path d="M0 0 C0.66 0.33 1.32 0.66 2 1 C2.63 3.07 2.63 3.07 3.12 5.56 C3.29 6.39 3.46 7.22 3.63 8.07 C3.75 8.7 3.88 9.34 4 10 C5.25 10.07 5.25 10.07 6.52 10.15 C7.61 10.22 8.69 10.3 9.81 10.38 C10.89 10.44 11.97 10.51 13.08 10.59 C16 11 16 11 19 13 C18.04 13.58 18.04 13.58 17.07 14.17 C16.24 14.69 15.41 15.21 14.56 15.75 C13.74 16.26 12.92 16.77 12.07 17.3 C9.91 18.81 9.91 18.81 9.16 20.91 C8.97 23.38 9.34 25.34 9.94 27.75 C10.13 28.55 10.33 29.35 10.53 30.17 C10.68 30.78 10.84 31.38 11 32 C10.48 31.63 9.96 31.25 9.43 30.87 C5.25 27.91 5.25 27.91 0.38 26.94 C-2.67 28.3 -5.3 30.05 -8 32 C-8.66 31.67 -9.32 31.34 -10 31 C-9.65 29.97 -9.3 28.94 -8.94 27.88 C-7.96 23.85 -7.57 21.87 -9 18 C-11.16 16.03 -13.48 14.48 -16 13 C-15.67 12.34 -15.34 11.68 -15 11 C-12.5 10.59 -12.5 10.59 -9.44 10.38 C-8.43 10.3 -7.41 10.23 -6.37 10.15 C-5.59 10.1 -4.81 10.05 -4 10 C-2.68 6.7 -1.36 3.4 0 0 Z " fill="#0E0F10" transform="translate(80,228)"/>
<path d="M0 0 C2 1 2 1 2.78 3.03 C3.26 4.68 3.74 6.32 4.22 7.97 C4.81 10.19 4.81 10.19 7 11 C8.87 11.23 10.75 11.41 12.62 11.56 C13.63 11.65 14.63 11.73 15.66 11.82 C16.82 11.91 16.82 11.91 18 12 C16.2 16.17 13.76 17.52 10 20 C8.9 23.3 9.13 24.4 9.94 27.69 C10.13 28.5 10.33 29.3 10.53 30.14 C10.68 30.75 10.84 31.37 11 32 C10.41 31.62 9.82 31.23 9.21 30.84 C4.61 27.8 4.61 27.8 -0.62 27.38 C-1.41 27.91 -2.19 28.45 -3 29 C-3.61 29.42 -4.22 29.84 -4.86 30.27 C-6.6 31.47 -8.3 32.73 -10 34 C-9.04 27.14 -9.04 27.14 -8.12 23.88 C-7.67 20.78 -7.67 20.78 -10.25 18.25 C-12.97 15.95 -12.97 15.95 -16 14 C-15.67 13.01 -15.34 12.02 -15 11 C-11.37 11 -7.74 11 -4 11 C-2.68 7.37 -1.36 3.74 0 0 Z " fill="#0E0F10" transform="translate(63,290)"/>
<path d="M0 0 C32.67 0 65.34 0 99 0 C99 0.33 99 0.66 99 1 C66.33 1 33.66 1 0 1 C0 0.67 0 0.34 0 0 Z " fill="#0E0F10" transform="translate(62,656)"/>
<path d="M0 0 C0.33 0 0.66 0 1 0 C1 29.04 1 58.08 1 88 C0.67 88 0.34 88 0 88 C0 58.96 0 29.92 0 0 Z " fill="#0E0F10" transform="translate(627,655)"/>
<path d="M0 0 C27.06 0 54.12 0 82 0 C82 0.33 82 0.66 82 1 C54.94 1 27.88 1 0 1 C0 0.67 0 0.34 0 0 Z " fill="#0E0F10" transform="translate(1134,656)"/>
<path d="M0 0 C27.06 0 54.12 0 82 0 C82 0.33 82 0.66 82 1 C54.94 1 27.88 1 0 1 C0 0.67 0 0.34 0 0 Z " fill="#0E0F10" transform="translate(979,656)"/>
<path d="M0 0 C27.06 0 54.12 0 82 0 C82 0.33 82 0.66 82 1 C54.94 1 27.88 1 0 1 C0 0.67 0 0.34 0 0 Z " fill="#0E0F10" transform="translate(824,656)"/>
<path d="M0 0 C0.33 0 0.66 0 1 0 C1 14.19 1 28.38 1 43 C0.67 43 0.34 43 0 43 C0 28.81 0 14.62 0 0 Z " fill="#0E0F10" transform="translate(472,654)"/>
<path d="M0 0 C0.33 0 0.66 0 1 0 C1 10.56 1 21.12 1 32 C0.67 32 0.34 32 0 32 C0 21.44 0 10.88 0 0 Z " fill="#FCFDFF" transform="translate(1106,655)"/>
<path d="M0 0 C7.59 0 15.18 0 23 0 C23 0.33 23 0.66 23 1 C15.41 1 7.82 1 0 1 C0 0.67 0 0.34 0 0 Z " fill="#FCFDFF" transform="translate(1108,728)"/>
<path d="M0 0 C7.59 0 15.18 0 23 0 C23 0.33 23 0.66 23 1 C15.41 1 7.82 1 0 1 C0 0.67 0 0.34 0 0 Z " fill="#FCFDFF" transform="translate(953,728)"/>
<path d="M0 0 C0.33 0 0.66 0 1 0 C1 3.96 1 7.92 1 12 C0.67 12 0.34 12 0 12 C0 8.04 0 4.08 0 0 Z " fill="#FCFDFF" transform="translate(1106,730)"/>
<path d="M0 0 C0.33 0 0.66 0 1 0 C1 2.64 1 5.28 1 8 C0.67 8 0.34 8 0 8 C0 5.36 0 2.72 0 0 Z " fill="#0E0F10" transform="translate(1133,731)"/>
<path d="M0 0 C0.33 0 0.66 0 1 0 C1 2.64 1 5.28 1 8 C0.67 8 0.34 8 0 8 C0 5.36 0 2.72 0 0 Z " fill="#0E0F10" transform="translate(978,731)"/>
<path d="M0 0 C0.33 0 0.66 0 1 0 C1 1.98 1 3.96 1 6 C0.67 6 0.34 6 0 6 C0 4.02 0 2.04 0 0 Z " fill="#0E0F10" transform="translate(472,760)"/>
<path d="" fill="#FCFDFF" transform="translate(0,0)"/>
<path d="" fill="#FCFDFF" transform="translate(0,0)"/>
<path d="" fill="#0E0F10" transform="translate(0,0)"/>
<path d="" fill="#0E0F10" transform="translate(0,0)"/>
<path d="" fill="#FCFDFF" transform="translate(0,0)"/>
<path d="" fill="#FCFDFF" transform="translate(0,0)"/>
<path d="" fill="#0E0F10" transform="translate(0,0)"/>
<path d="" fill="#0E0F10" transform="translate(0,0)"/>
<path d="" fill="#FCFDFF" transform="translate(0,0)"/>
<path d="" fill="#FCFDFF" transform="translate(0,0)"/>
<path d="" fill="#FCFDFF" transform="translate(0,0)"/>
<path d="" fill="#FCFDFF" transform="translate(0,0)"/>
<path d="" fill="#FCFDFF" transform="translate(0,0)"/>
<path d="" fill="#FCFDFF" transform="translate(0,0)"/>
<path d="" fill="#FCFDFF" transform="translate(0,0)"/>
<path d="" fill="#FCFDFF" transform="translate(0,0)"/>
<path d="" fill="#FCFDFF" transform="translate(0,0)"/>
<path d="" fill="#FCFDFF" transform="translate(0,0)"/>
</svg>
